/* XPM */
static char *_e45b5fc2d7940d8e438861745931690vVEvnoE8ONeR7Rk5[] = {
/* columns rows colors chars-per-pixel */
"72 90 190 2 ",
"   c None",
".  c #010101",
"X  c #0B0B0B",
"o  c #070808",
"O  c #151515",
"+  c #1D1D1D",
"@  c #232324",
"#  c #3D3724",
"$  c #3F3825",
"%  c #343434",
"&  c #3E3E3E",
"*  c #403926",
"=  c #433D2A",
"-  c #4D4635",
";  c #574E3E",
":  c #504837",
">  c #444444",
",  c #4D4D4D",
"<  c #474848",
"1  c #5D5346",
"2  c #5B5B5B",
"3  c #695A4C",
"4  c #6D6052",
"5  c #796558",
"6  c #646464",
"7  c #6C6C6C",
"8  c #757676",
"9  c #7B7C7C",
"0  c #83645E",
"q  c #85695D",
"w  c #866255",
"e  c #8A6C62",
"r  c #936F65",
"t  c #986E65",
"y  c #857165",
"u  c #8D766C",
"i  c #87746C",
"p  c #95736A",
"a  c #9B766D",
"s  c #9C7B6F",
"d  c #917367",
"f  c #9D7770",
"g  c #967D73",
"h  c #9E7A70",
"j  c #B17A6F",
"k  c #A27D72",
"l  c #B67E73",
"z  c #B87D71",
"x  c #A38175",
"c  c #AC847A",
"v  c #A78479",
"b  c #B78075",
"n  c #BC8175",
"m  c #B6847A",
"M  c #BF8579",
"N  c #B2897E",
"B  c #BC8A7F",
"V  c #C38679",
"C  c #C5897D",
"Z  c #C98B7E",
"A  c #8B8A8A",
"S  c gray53",
"D  c #9C9A9A",
"F  c #AA8B81",
"G  c #B58A82",
"H  c #B88D83",
"J  c #B18F88",
"K  c #B39186",
"L  c #BE9086",
"P  c #B49089",
"I  c #BD938B",
"U  c #B1ACAB",
"Y  c #BCBCBC",
"T  c #B8B7B6",
"R  c #A9A9A9",
"E  c #CB8E82",
"W  c #C28C81",
"Q  c #C49086",
"!  c #CC9186",
"~  c #C4948B",
"^  c #CC968C",
"/  c #C7988F",
"(  c #CA988E",
")  c #D59385",
"_  c #D89385",
"`  c #D39589",
"'  c #D99688",
"]  c #DB9A8D",
"[  c #C59B93",
"{  c #CC9C92",
"}  c #D19F95",
"|  c #DD9E91",
" . c #D3A196",
".. c #DEA195",
"X. c #D5A399",
"o. c #DAA69B",
"O. c #DDA99E",
"+. c #D7A89D",
"@. c #E0A59A",
"#. c #E1AA9F",
"$. c #E2A99E",
"%. c #DFAAA0",
"&. c #D9BBB5",
"*. c #E1ABA0",
"=. c #E3ACA1",
"-. c #E3ADA2",
";. c #E4ACA1",
":. c #E4ADA1",
">. c #E4ADA2",
",. c #E5ADA2",
"<. c #E4ADA3",
"1. c #E5AEA3",
"2. c #E6AEA3",
"3. c #E4AEA4",
"4. c #E7AFA4",
"5. c #E4AFA6",
"6. c #E4ADA2",
"7. c #E4B0A7",
"8. c #E7B0A5",
"9. c #E5B0A6",
"0. c #E9B1A5",
"q. c #E8B0A5",
"w. c #E4B2AA",
"e. c #E5B4AE",
"r. c #E5B3AB",
"t. c #E8B9AF",
"y. c #E5B7B2",
"u. c #E5B6B0",
"i. c #E5B6B1",
"p. c #E5B9B5",
"a. c #E5BAB6",
"s. c #E5B9B5",
"d. c #E9BCB3",
"f. c #E5BDBB",
"g. c #E5BCB9",
"h. c #E5BEBD",
"j. c #E5BFBE",
"k. c #E5BDBB",
"l. c #CDC0BE",
"z. c #DFC1BC",
"x. c #ECC4BC",
"c. c #EAC0B7",
"v. c #BFC0C0",
"b. c gray77",
"n. c #D2D3D3",
"m. c #DCDDDD",
"M. c #E6C1C1",
"N. c #E6C4C7",
"B. c #E6C3C5",
"V. c #E5CBC5",
"C. c #EDC9C2",
"Z. c #E6C7CB",
"A. c #E6C5C9",
"S. c #E6C6CA",
"D. c #E6C8CD",
"F. c #E6C9CF",
"G. c #F0CBC3",
"H. c #F1D2CC",
"J. c #E6CBD1",
"K. c #E6CCD3",
"L. c #E7CED6",
"P. c #E7CDD5",
"I. c #E6CCD3",
"U. c #E7CFD8",
"Y. c #E7CFD8",
"T. c #EDD8D4",
"R. c #E7D1DA",
"E. c #E7D0D9",
"W. c #E7D2DD",
"Q. c #E7D2DC",
"!. c #E7D3DE",
"~. c #E7D3DF",
"^. c #E7D4DF",
"/. c #E7D3DE",
"(. c #E5D3D0",
"). c #F4DAD5",
"_. c #F6DFDA",
"`. c #F6E1DD",
"'. c #E7D4E0",
"]. c #EDEDED",
"[. c #E8E6E6",
"{. c #F9E6E3",
"}. c #F8E9E6",
"|. c #FAEDEA",
" X c #F3E8E6",
".X c #FBF1EF",
"XX c #F4F4F3",
"oX c #FDF6F5",
"OX c #FEFEFD",
"+X c #FEF8F7",
/* pixels */
"                                q.4.4.>.X.                                                                                                      ",
"                              8.>.>.-.-.>.o.                                                                                                    ",
"                            q.>.>.>.>.>.>.>.O./                                                                                                 ",
"                            >.>.>.>.>.>.>.>.>.o./                                                                                               ",
"                            >.>.>.>.>.>.>.>.>.>.X.Q                                                                                             ",
"                          4.>.>.>.>.>.>.>.>.>.>.>. .                                                                                            ",
"                          q.>.>.>.>.>.>.>.>.>.>.>.*.{                                                                                           ",
"                          >.>.>.>.>.>.>.>.>.>.>.>.>.O.~                                                                                         ",
"                          >.>.>.>.>.>.>.>.>.>.>.>.>.>.} L                                                                                       ",
"                          >.>.>.>.>.>.>.>.>.>.>.>.>.>.#.(                                                                                       ",
"                          >.>.>.-.-.>.>.>.-.-.>.>.>.>.>.X.Q                                                               / ( {  .X.X.o.        ",
"                        q.>.>.>.-.8.B.j.8.-.>.>.>.>.>.>.#.[                                                         ~ ( } o.*.>.>.>.>.>.>.4.    ",
"                        q.>.>.>.>.s.~.Q.J.y.-.-.>.>.>.>.>.X.Q                                                   ~ (  .#.>.>.4.5.>.>.>.>.>.>.4.  ",
"                        q.>.>.>.>.M.Q.Q.'.R.j.4.>.>.>.>.-.*.[                                                 /  .#.>.-.>.s.D.P.g.*.>.>.>.>.>.q.",
"                        0.>.>.>.>.N.Q.~.~.~.~.j.4.>.>.>.>.>. .Q                                           ~ { O.-.-.-.w.A.~.~.'.J.4.>.>.>.>.>.2.",
"                        0.>.>.>.>.Z.Q.~.~.~.~.~.j.>.>.>.-.-.o.^                                         ~  .#.>.>.>.y.K.~.~.~.~.P.4.>.>.>.>.>.>.",
"                        0.>.>.>.>.D.^././././././.s.>.>.>.>.$.{ Q                                     / o.>.>.>.>.y.P.Q.Q.Q.'.'.F.4.>.>.>.>.>.>.",
"                        q.>.>.>.>.S.^././././././.P.w.>.>.>.,.X.~                                   / o.>.>.>.>.s.R.~.~.Q.'.Q.'.S.>.>.>.>.>.>.2.",
"                        q.>.>.>.>.S.^././././././.^.N.>.>.>.>.O.~                                 / O.;.>.>.>.s.P.~.~.~.Q.'.Q.'.j.$.>.>.>.>.>.q.",
"                          >.>.>.>.N.^./././././././.R.e.>.>.>.>.{ I                             / o.>.>.>.>.e.P.'.~.~.~.Q.Q.Q.~.y.;.>.>.>.>.>.  ",
"                          >.>.>.>.M.'./././././././.^.N.>.>.>.>.} Q ! ' ` ^ ^ ^ {             ~ o.>.>.>.>.w.J.'.Q.Q.'.Q.'.Q.'.P.w.>.>.>.>.>.4.  ",
"                          >.>.>.>.j././././.'././././.R.r.#.>.>.X.~ E _ _ _ _ _ _ _ ' ^ {   ~ X.>.>.>.>.4.S././.'.'.Q.Q.Q.'.'.A.>.>.>.>.>.>.4.  ",
"                          4.>.>.;.a././././././././././.g.>.>.>.O.~ ! _ _ _ _ _ _ _ _ _ ) Q } >.>.>.>.>.j.R././.Q.'.R.Q.~.~.~.s.>.>.>.>.>.>.    ",
"                          >.>.>.>.y././././././././.^.^.D.>.>.>.%./ Q _ _ _ _ _ _ _ _ _ ! / #.>.>.>.$.t.R./././.'.Q.~.~.~.~.K.8.>.>.>.>.>.2.    ",
"                          4.>.>.>.r.R././././././.'././.P.w.>.>.*.{ Q ) _ _ _ _ _ _ _ ) ~ o.>.>.>.>.5.D.'.Q.'.Q.Q.'.'.~.~.'.M.-.>.>.>.>.>.      ",
"                          4.>.>.>.w.P.'././././././././.~.y.>.>.>.{ I ) _ _ _ _ _ _ _ Q { -.>.>.>.#.j.~.Q.'.Q.Q.'.Q.Q.'.~.P.e.-.>.>.>.>.>.      ",
"                          X.>.>.>.>.F.'././././././././.~.g.>.>.>.} Q ) _ _ _ _ _ _ ) ^ O.>.>.>.>.e.U.~.'.Q.Q.'.Q.Q.'.Q.^.N.>.>.>.>.>.>.        ",
"                      [ ` ] >.>.>.>.S./././.'./././././.~.M.>.>.>.} Q ! _ _ ) ) _ _ Q } >.>.>.>.8.Z.'.'.Q.'.'.Q.'.Q.Q.'.R.e.#.>.>.>.>.q.        ",
"                    [ _ _ ' #.>.>.;.j./././././././././.'.S.>.>.5.} ~ E _ _ _ _ _ ) ~ O.>.>.>.-.g.Q.'.Q.Q.'.Q.'.'.Q.'.Q.N.>.>.>.>.>.>.          ",
"                  { ` _ _ _ @.>.>.;.y././././././././././.S.>.>.>.X.Q ! _ _ _ _ ) ! { >.>.>.>.e.Y.Q.'.Q.'.Q.'.Q.Q.Q.'.P.r.>.>.>.>.>.q.          ",
"                [ ' _ _ _ _ | >.>.>.w.P.'./././.'./././.'.D.>.>.>.} Q ! _ _ _ _ ` ^ o.>.>.>.7.A.'.'.Q.'.'.Q.'.Q.'.Q.Q.j.>.>.>.>.5.>.            ",
"              [ ' _ _ _ _ _ ' #.>.>.>.Z./././././././././.D.4.>.>.} Q E _ _ _ _ ! ( -.>.>.>.g.Q.Q.Q.'.Q.Q.'.Q.'.Q.'.D.8.>.>.>.>.8.              ",
"              ) _ _ _ _ _ _ _ @.>.>.-.g.'.Q.Q.Q.Q.Q.~.~.'.A.>.>.>.} Q E _ _ _ _ ! } >.>.>.w.P.^./././././././././.R.e.#.2.>.>.2.                ",
"            ` _ _ _ _ _ _ _ _ ] >.>.>.r.R.'.Q.R.'.Q.R.~.'.B.>.>.;.{ L ) _ _ _ ) ~ O.>.>.>.N./././././././././././.s.>.>.>.>.2.q.                ",
"          { _ _ _ _ _ _ _ _ _ _ @.>.-.>.A.Q.~.~.Q.'.~.R.'.j.>.>.#./ ~ ) _ _ _ ` / #.-.-.s./././././././././././.j.>.>.>.>.>.o.                  ",
"          ) _ _ _ _ _ _ _ _ _ _ | >.-.-.p.Q.~.~.'.Q.~.~.~.s.>.>.O.~ Q _ _ _ _ ! { >.>.4.J.^./.^.^././././././.j.>.>.>.>.>.@.` {                 ",
"        ^ _ _ _ _ _ _ _ _ _ _ _ _ $.>.>.4.D.~.~.Q.Q.'.Q.U.w.-.>.X.Q Q _ _ _ _ !  .>.-.j.Q.'.Q.Q././.'./././.j.>.>.>.>.>.@.' _ `                 ",
"      [ _ _ _ _ _ _ _ _ _ _ _ _ _ ] *.>.>.y.R.~.Q.'.Q.'.A.4.-.-.{ I ) _ _ _ ) ! o.>.w.P.'.Q.'.'./././.'.R.g.>.>.>.>.>.@._ _ _ _ ^               ",
"      ^ _ _ _ _ _ _ _ _ _ _ _ _ _ _ @.$.>.>.B.Q.Q.Q.'.Q.s.;.>.O./ ~ _ _ _ _ ) / o.>.j.~.'.~.'.Q././.'.P.s.>.>.>.>.>.@._ _ _ _ _ _ [             ",
"    [ ` _ _ _ _ _ _ _ _ _ _ _ _ _ _ _ @.-.-.8.A.'.Q.~.Z.4.>.>.} Q E _ _ _ _ _ ! o.7.K.~.~.~.Q.Q././.D.e.>.>.>.>.$.@._ _ _ _ _ _ _ ^             ",
"    ^ _ _ _ _ _ _ _ _ _ _ _ _ _ _ _ _ _ $.>.>.4.d.s.y.4.5.-.-.o.o.....| | ] ] ` o.y.~.Q.~.~.~.'.R.M.8.>.>.>.8.#.] _ _ _ _ _ _ _ _ ) [           ",
"    ' _ ` _ _ _ _ _ _ _ _ _ _ _ _ _ ] @.$.>.>.>.2.#.;.>.>.>.>.>.4.5.-.5.>.>.;.*.-.w.j.A.J.~.R.A.e.>.>.>.>.>.@.' _ _ _ _ _ _ _ _ _ _ /           ",
"  [ _ _ _ _ _ _ _ _ _ _ _ _ _ _ ] @.>.>.>.>.>.>.>.>.>.>.>.>.>.>.>.>.>.>.>.>.>.>.>.>.-.-.4.e.y.4.>.>.#.>.$.| ' _ _ _ _ _ _ _ _ _ _ _ '           ",
"  ^ _ _ _ _ _ _ _ _ _ _ _ _ _ ..>.>.>.>.>.>.>.>.>.>.>.>.>.>.>.>.>.>.>.>.>.>.>.>.>.>.>.-.>.>.*.>.>.>.$.@.' _ _ _ _ _ _ _ _ _ _ _ _ _ _ (         ",
"  ` _ _ _ _ _ _ _ _ _ _ _ _ @.>.>.>.>.>.>.>.>.>.>.>.>.>.>.>.>.>.>.>.>.>.>.>.>.>.>.>.>.>.>.>.>.>.>.>.#.@.' _ _ _ _ _ _ _ _ _ _ _ _ _ _ ^         ",
"  _ _ _ _ _ _ _ _ _ _ _ ' @.>.>.>.>.>.>.>.>.>.>.>.>.>.>.>.>.>.>.>.>.>.>.>.>.>.>.>.>.>.>.>.>.>.>.>.>.>.#.$.] _ _ _ _ _ _ _ _ _ _ _ _ _ `         ",
"[ _ _ _ _ _ _ _ _ _ _ _ ..>.>.>.>.>.>.>.>.>.>.>.>.>.>.>.>.>.>.>.>.>.>.>.>.>.>.>.>.>.>.>.>.>.>.>.>.>.>.>.>.#.@._ _ _ _ _ _ _ _ _ _ _ _ _ [       ",
"{ _ _ _ _ _ _ _ _ _ _ ] *.>.>.>.>.>.>.>.>.>.>.>.>.>.>.>.>.>.>.>.>.>.>.>.>.>.>.>.>.>.>.>.>.>.>.>.>.>.>.>.>.>.>.@._ _ _ _ _ _ _ _ _ _ _ _ /       ",
"/ _ _ _ _ _ _ _ _ _ _ @.>.>.>.>.>.>.>.>.>.>.>.>.>.>.>.>.>.>.>.>.>.>.>.>.>.>.>.>.>.>.>.>.>.>.>.>.>.>.>.>.>.>.>.>.@.' _ _ _ _ _ _ _ _ _ _ E       ",
"^ _ _ _ _ _ _ _ _ _ @.>.>.>.>.>.>.>.>.>.>.>.>.>.>.>.>.>.>.>.>.>.>.>.>.>.>.>.>.>.>.>.>.>.>.>.>.>.>.>.>.>.>.>.>.>.>.@.' _ _ _ _ _ _ _ _ _ W       ",
"^ _ _ _ _ _ _ _ _ ] $.>.>.>.>.>.>.>.>.>.>.>.>.>.>.>.>.>.>.>.>.>.>.>.>.>.>.>.>.>.>.>.>.>.>.>.>.>.>.>.>.>.>.>.>.>.>.>.@._ _ _ _ _ _ _ _ ) C       ",
"^ _ _ _ _ _ _ _ _ ] #.>.>.>.>.>.>.>.>.>.>.>.>.>.>.>.>.>.>.>.>.>.>.>.>.>.>.>.>.>.>.>.>.>.>.>.>.>.>.>.>.>.>.>.>.>.>.>.$.' _ _ _ _ _ _ _ _ M       ",
"` ) _ _ _ _ _ _ ' $.>.>.>.>.>.>.>.>.>.>.>.>.>.>.>.>.>.>.>.>.>.>.>.>.>.>.>.>.>.>.>.>.>.>.>.>.>.>.>.>.>.>.>.>.>.>.>.>.>.@._ _ _ _ _ _ _ ) M       ",
"^ _ _ _ _ _ _ _ ' #.>.>.>.>.>.>.>.>.>.>.>.>.>.>.>.>.>.>.>.>.>.>.>.>.>.>.>.>.>.>.>.>.>.>.>.>.>.>.>.>.>.>.>.>.>.>.>.>.>.>.] _ _ _ _ _ _ ) n P     ",
"^ _ _ _ _ _ _ _ @.#.>.>.>.>.>.>.>.>.>.>.>.>.>.>.>.>.>.>.>.>.>.>.>.>.>.>.>.>.>.>.>.>.>.>.>.>.>.>.>.>.>.>.>.>.>.>.>.>.>.>.@.' _ _ _ _ _ E l P     ",
"( _ _ _ _ _ _ _ $.2.>.>.>.>.>.>.>.>.>.>.>.>.>.>.>.>.>.>.>.>.>.>.>.>.>.>.>.>.>.>.>.>.>.>.>.>.>.>.>.>.>.>.>.>.>.>.>.>.2.2.#.] _ _ _ _ _ E l J     ",
"/ ) _ _ _ _ _ ' $.2.>.>.>.>.>.8.w.8.>.#.>.>.>.>.>.>.>.>.>.>.>.>.>.>.>.>.>.>.>.>.>.>.>.>.>.>.>.>.>.>.>.>.>.>.*.-.>.>.>.>.>.@._ _ _ _ _ V z       ",
"I ) _ _ _ _ _ @.>.2.>.>.>.d.).|..X XH.r.>.>.>.>.>.>.>.>.>.>.>.>.>.>.>.>.>.>.>.>.>.>.>.>.>.>.>.>.>.>.>.e.c.c.e.5.>.>.>.>.>.$._ _ _ _ ) z b       ",
"  E _ _ _ _ _ $.>.>.>.>.C.oXOX].m.].OX}.d.>.>.>.>.>.>.>.>.>.>.>.>.>.>.>.>.>.>.>.>.>.>.>.>.>.>.>.#.t.).oXOXOXoX_.t.>.>.>.>.>.] _ _ _ E z b       ",
"  H ) _ _ _ ' $.>.>.>.x.OXXXA % + % A XX|.r.>.>.>.>.>.>.>.>.>.>.>.>.>.>.>.>.>.>.>.>.>.>.>.>.>.;.t..XOXn.Y n.XXOX.Xd.>.>.>.>.@._ _ _ V z m       ",
"  G Z _ _ _ ] #.-.4.8.}.+X7 . . . % % 8 +XH.#.>.>.>.>.>.>.>.>.>.>.>.>.>.>.>.>.>.>.>.>.>.>.>.>.8.{.[.6 O o O 6 [.OX}.q.>.>.>.$._ _ ) z z N       ",
"  P M ) _ _ ..-.-.>.d.OXY o . . > [.m.% Y |.q.>.>.>.>.>.>.>.>.>.>.>.>.>.>.>.>.>.>.>.>.>.>.>.>.c.XX6 . . . o . 2 XXOXC.>.>.>.#.' _ Z z z G       ",
"    b Z _ _ @.>.-.>.x.OX8 . . . > ].[.@ 9 oXr.>.>.>.>.>.>.>.>.>.>.>.>.>.>.>.>.>.>.>.>.>.>.>.>.).b.X . . , Y 7 X Y OX).#.>.>.>.] _ l l l         ",
"    G n ) _ #.>.>.>.x.OX2 . . . . & % . 6 .Xr.>.>.>.>.>.>.>.2.4.4.4.4.4.>.>.>.>.>.>.>.>.>.>.-._.A . . . D OXb.X A OX`.>.>.>.>.@.Z z z m         ",
"      l V ] ;.>.>.#.t.+X8 . . . . . . . 9 }.>.>.>.>.>.>.>.-.[ K F F F K [ +.-.-.>.>.>.>.>.>.>.).S . . . & R 2 . A OX).-.-.-.8...n z z G         ",
"      H z ! >.>.>.>.>.`.Y X . . . . . X Y C.>.>.>.>.>.>.>.g - - = = = = - 4 [ -.>.>.>.>.>.>.>.x.U o . . . . . o Y OXx.-.>.>.>.X.z z n           ",
"      g j E >.>.-.>.>.t. X8 . . . . o 8 ).4.>.>.>.>.>.>. .; # $ * * $ $ $ # y 5.>.>.>.>.>.>.-.8.(.< . . . . . , XX}.0.:.>.>.8...n z m           ",
"        5 r H  .#.>.>.-.d.T.A % @ % A V.w.;.>.>.>.>.>.2. .; $ $ $ $ = = $ $ y -.>.>.>.>.>.>.>.>.d.l.< o . o , m..Xd.>.8.>.>.8.o.j t 5           ",
"        u a h q q L >.-.*.w.x.c.&.&.d.2.>.>.>.>.>.>.-.-.3.8 # # $ $ $ $ $ = F 4.>.>.>.>.>.>.>.>.;.t.V.U D T  X_.t.:.8.#.8.O.~ x w e             ",
"          u c x q N 8.-.>.5.%.>.2.#.>.>.>.>.>.>.>.>.>.#.7. .4 * $ $ $ $ = 5 %.;.>.>.>.>.>.>.-.-.>.;.>.t.c.x.t.>.#.8.#.O.N s v L n P             ",
"            c x c  .>.>.>.>.>.>.2.>.>.>.>.>.4.-.#.8.:.9.:.9.o.x 1 : - 1 g %.2.<.>.>.>.>.>.>.>.-.>.>.>.;.;.;.;.>.8.#.:. .q d v h q 1             ",
"          4 K o.>.>.>.>.>.>.>.>.>.>.>.>.t.B.D.D.p.8.:.:.:.:.:.:.%.[ [ +.5.%.2.*.>.>.>.>.>.>.>.8.w.8.>.>.>.>.>.>.:.:.:.X.x e d x i               ",
"            O.O.>.>.>.>.>.>.>.>.-.-.-.s.P.~.~.~.Q.c.>.>.>.>.>.>.<.4.,.<.<.;.2.<.>.O.-.-.>.>.s.J.U.P.A.r.-.>.>.>.>.>.>.>.4.O./ v                 ",
"            o.X.>.>.>.>.>.>.>.>.>.-.9.D.Q.~.~.~.'.P.w.>.-.>.>.>.<.<.2.2.;.2.*.2.>.k { -.>.s.~.'.~.~.'.D.8.>.>.>.>.>.>.>.>.>.o.8.                ",
"              } O.>.>.>.>.>.>.>.>.>.w.P.'.Q.~.~.!.E.e.{ N >.>.>.<.2.o.} 2.*.2.2.4.f L 8.>.D.'.Q.R.~.~.~.y.>.>.>.>.>.>.>.>.-.X.                  ",
"              X.{ -.>.>.>.>.>.>.>.>.7.J.'.Q.~.~.!.P.w./ p >.>.>.<.5.f 0 2.2.<.*.>.k L >.8.J.Q.~.Q.~.~.~.s.#.>.>.>.>.>.>.>.X.X.                  ",
"                {  .*.5.-.>.>.>.>.>.#.s.Y.'.'.'.W.k.2.{ r >.>.>.%.} 5 0 c 4.2.2.;.e } ;.>.B.Q.~.Q.Q.Q.R.e.>.>.>.>.>.-.>.%.{ O.                  ",
"                o./  .-.>.>.>.>.>.>.>.4.a.J.U.J.k.2.2.o.0 X.4.q.%.e G o.e p / } k p 2.;.>.w.K.'.'.'.R.j.>.>.>.>.>.>.-.*.{ }                     ",
"                  X./ { #.;.;.>.>.>.>.>.;.4.w.4.*.2.2.2.k e H c 0 l 2.2.o.k e 0 f o.2.;.>.>.w.M.D.N.s.>.>.>.>.>.>.>.-.{ { %.                    ",
"                    X./ [ o.-.>.>.>.>.>.2.*.<.*.<.<.2.2.2.H r k { 2.<.2.4.q.*.*.4.2.*.2.>.>.>.>.>.>.>.>.>.>.>.>.>.O.{ / o.                      ",
"                      X./ / { o.-.>.>.>.>.>.>.>.>.>.-.-.>.4.4.4.4.-.>.>.>.>.>.>.>.>.>.>.>.>.>.>.>.>.-.*.>.>.;.%.} / [ o.                        ",
"                          { / / { o.-.>.>.;.>.>.>.>.4.*.>.>.>.>.>.>.>.>.>.>.>.>.>.>.>.>.>.>.>.>.>.>.>.5.*.O. ./ Q {                             ",
"                          >.o.{ ~ ~ {  .O.#.-.-.>.;.>.4.>.>.>.>.>.>.-.*.>.>.>.>.>.>.>.>.5.*.<.<.-.*.o.X.{ / Q [ X.-.                            ",
"                          >.>.-.%.{ ~ Q ~ [ { X.o.%.*.*.-.>.>.>.>.-.-.5.>.>.>.>.>.-.*.*.%.o.X.X.{ [ ~ ~ Q { X.*.4.                              ",
"                          >.>.>.5.%.%.X.{ / ~ ~ I Q / { { } } X.X.X.X.X.X.} } } { { { / ~ ~ ~ Q ~ / { X.O.-.-.>.5.                              ",
"                          8.>.>.-.-.>.>.-.-.o. .{ { / ~ ~ Q ~ I ~ Q Q ~ I ~ ~ Q Q / ~ / { { } X.O.#.*.*.>.>.-.>.>.                              ",
"                            4.>.-.>.>.>.-.>.>.>.4.-.5.          { { [ { [               *.-.-.>.>.>.>.>.>.>.>.>.                                ",
"                              >.>.>.>.>.-.>.>.>.-.q.                                      4.-.-.>.>.>.>.>.>.4.q.                                ",
"                                8.>.>.>.>.>.>.>.q.                                          4.>.>.>.>.>.>.4.                                    ",
"                                  q.4.>.>.4.q.                                                q.4.4.4.4.q.                                      "
};
