/* XPM */
static char *d645e02edb4c47a2ced961fcd13da1fbcu05k3S6Jlm9nfHc[] = {
/* columns rows colors chars-per-pixel */
"84 90 212 2 ",
"   c None",
".  c #321A01",
"X  c #3F2402",
"o  c #7F1200",
"O  c #452702",
"+  c #553B1C",
"@  c #663D04",
"#  c #367C09",
"$  c #3A7E0A",
"%  c #347B15",
"&  c #3A7E16",
"*  c #357B1B",
"=  c #397F1D",
"-  c #3C7F25",
";  c #397F2A",
":  c #367C25",
">  c #6D4205",
",  c #764701",
"<  c #734F1E",
"1  c #477C0A",
"2  c #5B7D0B",
"3  c #4B7A1E",
"4  c #757C16",
"5  c #707D09",
"6  c #57422D",
"7  c #4B7D25",
"8  c #5B7D21",
"9  c #6F522C",
"0  c #736355",
"q  c #73614C",
"w  c #980000",
"e  c #951A06",
"r  c #8E1000",
"t  c #A50000",
"y  c #BB1512",
"u  c #982707",
"i  c #943802",
"p  c #8E2B01",
"a  c #A03C02",
"s  c #B93E20",
"d  c #C51F1A",
"f  c #DF2B01",
"g  c #E23801",
"h  c #E02F01",
"j  c #E23E33",
"k  c #8F5504",
"l  c #975804",
"z  c #8E560D",
"x  c #A85B09",
"c  c #AC4E17",
"v  c #BA561B",
"b  c #96641B",
"n  c #957712",
"m  c #A46405",
"M  c #B56906",
"N  c #BA7307",
"B  c #A07710",
"V  c #8B5F22",
"C  c #BA4429",
"Z  c #936727",
"A  c #E54502",
"S  c #E74B02",
"D  c #E84E02",
"F  c #E95302",
"G  c #EB5B02",
"H  c #E65D01",
"J  c #C86C0A",
"K  c #C37504",
"L  c #CC7C05",
"P  c #C57808",
"I  c #D17409",
"U  c #D97909",
"Y  c #ED6302",
"T  c #EE6902",
"R  c #E36F01",
"E  c #F06E02",
"W  c #E37502",
"Q  c #EB7605",
"!  c #E57A02",
"~  c #E97B04",
"^  c #ED7A09",
"/  c #E87708",
"(  c #F27403",
")  c #F47B03",
"_  c #F47B0A",
"`  c #FB7D0D",
"'  c #CD4632",
"]  c #ED4B3C",
"[  c #816C54",
"{  c #947F65",
"}  c #3E800A",
"|  c #3C8111",
" . c #3D821D",
".. c #3C8129",
"X. c #3E8123",
"o. c #43830B",
"O. c #48870B",
"+. c #4C8A0D",
"@. c #528D0D",
"#. c #57900E",
"$. c #5B920E",
"%. c #438512",
"&. c #468912",
"*. c #4B8D12",
"=. c #458A1C",
"-. c #4B8E1B",
";. c #458618",
":. c #528E14",
">. c #4C9215",
",. c #4D931B",
"<. c #529516",
"1. c #5C9614",
"2. c #54941A",
"3. c #539A1A",
"4. c #5C9B1C",
"5. c #58961C",
"6. c #668B0D",
"7. c #79840B",
"8. c #62960E",
"9. c #65990F",
"0. c #699B0F",
"q. c #798A11",
"w. c #649A15",
"e. c #6D9E11",
"r. c #649D1C",
"t. c #6A9F19",
"y. c #709F10",
"u. c #6E8712",
"i. c #5DA41E",
"p. c #6DA11A",
"a. c #65A41C",
"s. c #74A312",
"d. c #7AA612",
"f. c #7EA913",
"g. c #75A61B",
"h. c #7DAB19",
"j. c #78A71A",
"k. c #448A26",
"l. c #418628",
"z. c #428623",
"x. c #4D9324",
"c. c #509623",
"v. c #559B22",
"b. c #599E22",
"n. c #5DA421",
"m. c #60A720",
"M. c #60A720",
"N. c #62A920",
"B. c #63AA20",
"V. c #62A920",
"C. c #868508",
"Z. c #9A8A0A",
"A. c #899C17",
"S. c #82AA12",
"D. c #86AD13",
"F. c #83AC14",
"G. c #89AF13",
"H. c #89AF14",
"J. c #82AD1A",
"K. c #8EB214",
"L. c #8BB114",
"P. c #87B019",
"I. c #8CB318",
"U. c #92B515",
"Y. c #95B716",
"T. c #92B515",
"R. c #96B816",
"E. c #96B816",
"W. c #9BBB16",
"Q. c #99B915",
"!. c #9CBB16",
"~. c #9DBC16",
"^. c #9CBC16",
"/. c #9EBD16",
"(. c #9FBD16",
"). c #9EBC16",
"_. c #9DBC16",
"`. c #91B618",
"'. c #D38204",
"]. c #D98504",
"[. c #DE8904",
"{. c #D5850B",
"}. c #DB870A",
"|. c #DF9704",
" X c #CB8518",
".X c #CD8A0A",
"XX c #EA8402",
"oX c #E38C04",
"OX c #ED8B02",
"+X c #E88308",
"@X c #F58403",
"#X c #F38D03",
"$X c #F98D03",
"%X c #F3830B",
"&X c #FB860C",
"*X c #FE8A0C",
"=X c #EE9403",
"-X c #EE9802",
";X c #E59405",
":X c #F49503",
">X c #FB9504",
",X c #F49A02",
"<X c #FE9D04",
"1X c #FE9309",
"2X c #FE9C08",
"3X c #F5A303",
"4X c #FEA303",
"5X c #F6AA03",
"6X c #FEAB02",
"7X c #FEB403",
"8X c #FEB803",
"9X c #908276",
/* pixels */
"          # $ #                       $ +.+.$ * ;                                                                                                                       ",
"      o.8.d.F.d.8.}                 o.d.Y.Q.F.@.;.l.                                                                                                                    ",
"    +.D._.(.(.(.(.s.$             $ d.(.!.^.(.U.*.v.l.                    ..                                                                                            ",
"  O.G.(._.(._._._.(.8.            @.R.(.^.^.^.(.$.4.c.                * & | & *                                                                                         ",
"  9.(._.(._._._.(.(.d.$           d.(.W.W.(.W.W.$.i.n...            +.s.H.L.f.8.}                                                                                       ",
"  s.(._._._._._.(.(.G.o.        o.K.W.(.(.(./.H.+.i.n...          8.W.(././.(.(.f.o.                                                                                    ",
"  8.(._._._._._.W.(.D.$         $.(.(.W.W./.Q.$.3.V.n...        O.L.(.W.W.(.(.(./.s.      ..k.x.x.x.k...                                                                ",
"  o.D.(._._.(._.W.(.L.o.      o.H./.W.(.(.K.$.>.V.V.x.          @.(.(.W.(.W.(.W./.L.O.  ..c.n.V.B.V.N.c...                                                              ",
"    +.f.W.(.W.(.Q.^.^.y.o.# o.s.W.W.(.S.8.+.3.n.n.V.v...      X.@.W.W.(._._.)._.).Y.O.  x.N.N.N.n.a.i.3.-.:                       } @.$.@.}                             ",
"      } @.d.R.(.U.R.^.^.L.d.G.!.K.W.D.} * c.V.N.n.V.n.x.......v.*.D.(.(._._._._.(.G.o...v.N.N.N.i.>.#.$.1.%.                    +.S.Q.W.Q.D.8.$                         ",
"          # $.T.R.L.^.^.(.(.(.K.R.(.0.    ..n.n.n.V.a.V.b.v.n.N.3.@.T.(._._._._.(.y.  ..n.N.V.i.>.y.Y.(.(.D.O.                o.S.(.(._.!.^.!.y.$                       ",
"              9.^.D.Q.^.^.^.U.D.(.(.d.#     =.>.&.>.>.>.3.i.n.n.N.>.$.R.)._._.).T.+.    c.V.i.+.s.(.(.(.W.(.d.#               @.W.(.W._.^.^.(.Q.$.                      ",
"              $.(.L.G.(.!.Q.S.U.W./.W.s.$.$.9.y.S.H.S.d.9.+.,.i.N.x.% 9.W.W.Y._.L.O.    l.b.*.y.^.^.^.^.W./.K.o.              $.W.(._._._._._.(.s.                      ",
"    +.+.} # O.S.(.R.d.Y.Y.G.d.Y.Y.Q.W./.(.W.(.(././.(.(.(.D.+.3.B.x.; } D.W.U.).(.$.    * %.0.W.^.^.^.^.(.(.L.o.        ..k.k.:.W.(._._.(._._.(.d.                      ",
"  $.U.Y.S.d.T./.W.T.s.h.P.s.d.P.I.`.Y.W.(.W.W.(.W.(.W.W.s.$.#.+.3.n.x.& d.W.G.).(.T.8.+.#.S.(.W.^.(.(.^.(.R.1.        k.n.i.a.>.S.(._._._._._.(.e.                      ",
"O.U.(._././.^.Q.I.I.d.p.h.w.j.j.j.h.I.Y.W.(.(.W.(.(.(.d.6.K._.U.#.>.>.+.L.Y.G._._._.(.Y.W.Y.W.(.(.(.(.^.K.9.         .3.n.n.a.3.$.(._._._._.(.U.+.                      ",
"@.R.(._._._.T.F.j.s.p.1.t.#.r.t.j.J.P.`.E._._._._._._.8.F.)._._.Y.S.d.U.).T.F.).(.(.(.T.L.Y.(.L.0.e.y.8.%.%     } #.0.$.>.i.V.i.+.T.(.W.(.(.Y.$.                        ",
"$ s._.(.(._.Y.P.J.j.t.*.1.*.r.t.g.g.h.P.`.W.W.(.!.Y.G.@.S.)._._.).)._._.W.I.S.W.W.W.L.D.R.(.L.*.>.<.3.3.n.k... .9.R.(.W.8.>.B.B.*.G.W.T.W.W.8.                          ",
"  $ 8.d.G.L.h.e.1.1.r.5.%.2.r.r.:.O.*.@.@.$.1.@.:.%.o.& @.Y.)._._.Y.I.`.`.h.d.`.I.h.f.W.(.(.y.>.n.V.a.V.B.V.n.&.d.(.W.(.L.+.3.3.@.Y.U.Y.(.L.o.                $ $       ",
"      # } o.} $     o.:.& :.v.%.              : ;.z.- z.%.#.U._.W.L.S.g.J.y.t.P.s.s.K.Y.W.(.d.&.,.n.V.V.V.n.n.>.s.(.(.W.(.L.0.9.G._.F.W.(.L.O.          $ #.s.D.F.0.o.  ",
"                      | } =.k.#                 ; - - =.z.* O.w.d.J.J.j.t.w.t.t.w.h.P.K.E.Q./.d.<.&.>.3.3.n.n.i.@.R.(.(.W.(.(.(.(.T.H._._._.e.#     $ @.f.Q.(.(.(.(.y.# ",
"                      5 7.q.u.2                 7 - :  .-       $ o.+.r.t.*.1.:.w.t.g.J.I.E././.Q.D.s.9.+.>.i.a.*.e.W.W.Y.K.E.R.Q.S.T._._._.Y.s.8.e.S.Q.(.!.(.^.(._.T.O.",
"                    ,X3X,X2X1X+X~             W I N B 4 7             o.1.:.*.:.r.p.g.h.P.Y.W._.(.(.(.(.T.s.+.3.c.& 0.T.K.h.h.I.P.s.Y.~._._./.~.W.W.(._.^.(.!.!.^.!.W.@.",
"                OX5X4X1X*X*X&X&X&X~ W     W ^ ` _ ` _ Q U               &.&.;.4.a.p.g.h.P.I.W._.(.W.(.W.(.(.L.$.>.z.% <.j.h.s.h.e.j.I.Y.Y.H.F.H.U.Q.(.(.(.!.^.(.(.(.L.o.",
"                3X2X*X*X*X*X*XU J %X%XW W _ ` ` ` ` ` ` _ ^ W           | | -.v.:.&.*.w.S.I.W.W.^.^.^.^.^.^./.R.@.3.x. .%.w.g.1.8.h.h.s.s.F.Q.~.(.R.d.s.U.(.(.(.!.U.$.  ",
"              ,X6X*X*X*X*X*X*XI l _ *X^ / _ ` ` ` ` ` ` ` ` ^ W   OX:X[.C.2 x.%.#     $ +.s.U.(.(.^.^.^.^./././.e.3.B.n.3.*.p.*.r.w.w.s.I.Y.Q.~.Q.8.#   O.9.y.s.8.O.    ",
"              6XU U *X*X*X*X*X*X1X*X1X*X~ _ ` ` ` ` ` ` ` ` ` +X3X6X6X4X5X;XZ.1           % &.0.L.^./././././.W.$.3.N.n.i.&.5.*.-.:.t.j.J.`.Y./.G.$                     ",
"            ,X3Xk I 1X*X1X1X1X1X1X>X2X<X>X~ ` ` ` ` ` ` ` _ :X5X2X*X&X*X*X*X1X+X    W Q W n 3 * } @.0.d.f.f.d.$.6.A.A.g.a.%.;.$ :.r.t.p.g.P.Y.~.Y.+.                    ",
"            3X4X>X2X2X<X<X>X2X:X<X<X2X>X<XXX_ ` ` ` ` ` _ :X3X+X&X&X*X*X*X*X*X&XW Q ` _ ` ^ P 4 X.      1 2 Z..X3X5X5X;Xq.} | =.b.r.p.j.h.F.T.W.^.S.O.                  ",
"            5X4X2X2XoX2X<X2X;XV {.<X<X<X2X#XQ ` ` ` ` ` #X7XK k %X*X&X*X*X*XU ^ %XQ ` ` ` ` ` / B       =X3X5X2X1X1X1X2X7.# ;.x.*.*.:.p.h.P.I.W.!.(.G.$.$               ",
"          OX7X4X2XoX< L <X<X].{ b 2X2X<X<X>XQ ` ` ` ` %X6X6X>X:X1X*X*X*X*X*Xx x &X/ ^ ` ` ` ` ` (     3X7X4Xl x &X*X&X&X+X@.&.| >.-.* O.g.P.T._.!.(.(.Q.y.o.            ",
"          :X7X4X<X{.9Xb <X<XoX+ @ =X2X2X<X>X! ` ` ` ` 3X6X<X2X<X<X2X2X1X1X*X&X%X*X&XQ ` ` ` ` ` _ XX5X6X4X2X+X+X*X&X&X*X*X}.7.q.c...    +.F.W.!.^.^.^.^.(.f.o.          ",
"          ,X7X<X<X[.6 @ <X2X2X> @ >X<X<X2X2X~ ` ` ` :X7X4X2X<XN OX2X2X2X2X2X>X1X*X*X~ ` ` ` ` _ #X7X6X4X2X<X<X>X1X*X*X*X*X*X*X{.8         @.L.(._._._._._.(.s.#         ",
"          3X7X<X<X>X, , <X<X4X[.L <X2X2X<X2X~ _ ` @X5X6X<X<X X0 N 4X2X2XL :X<X2X>X>XXX_ ` ` _ :X7X6X4X2X2X'.oX2X>X>X*X*X*XJ +X)             +.L.(._.(._._._.!.8.        ",
"          3X7X<X2X<XoXoX,X=X[.K -X<X<X<X<X<X~ ` _ :X7X4X<X<Xb 0 K 4X<X{.[ P <X>X<X2XXX_ ` _ :X7X6X<X2X2X X[ m <X2X2X>X*X&Xl M &XW             +.S.(._._._._.(.D.o.      ",
"          3X7X4X<X<X2XK i p r o L <X<X<X<X:X! ` %X6X6X2X<X<X> O oX<X<Xb 0 K <X<X<X2XXX_ _ :X7X7X4X<X<XoX9 q L <X2X<X2X>X1X&X` &XW               o.y.Y.(.(._.(.U.O.      ",
"          4X7X<X<X<X<XM w w t r ].4X<X<X<X<X~ _ ,X7X6X2X<X<Xm m <X<X<X> X [.<X<X<X2X~ ^ :X7X6X4X<X<X<XM . l 2X<X<X].P 2X1X1X*X*XW                   @.s.U.W._.y.$       ",
"          5X7X<X<X<X<X'.r y d u oX<X<X<X<X:X~ ) 6X7X<X<X<X<X<X2X2X<X<Xk l <X2X<X2X2X! OX7X7X4X<X<X<X<X[.N ,X<X<X'.9XV >X2X2X>X&XW                       O.@.@.$         ",
"          6X7X<X<X<X<X,Xc ] ] C ,X<X<X<X<X<XW :X8X4X<X<X<X<X<X<X<X<X<X:X2X<X<X2X<X>X+X7X7X4X<X<X<X<X2X-X4X2X<X:X> 6 N <X2X2X<X#XW                                       ",
"          3X7X4X<X<X<X4XP C ' N <X<X4X<X<X2X! 3X7X<X<X<X4XoX[.3X<X<X<X<X<X<X<X2X<XOX,X7X6X<X<X<X<X<XK p ].4X<X[.O , :X<X<X2X2XOX                                        ",
"          5X7X4X2X<X<X<X<XL K =X<X<X<X<X4X>XXX7X6X4X<X<X4X'., M oX:X<X<X<X<X<X<X<XXX6X5X<X<X4X<X<X<Xi w u ].<X:XP ,X<X2X<X<X1X!                                         ",
"          3X7X<X4X<X4X<X<X<X4X2X<X4X<X<X<X<X-X8X4X<X<X<X<X<X].l , , N <X<X<X<X<X#X=X6X4X<X<X<X<X4XoXs y w i ,X<X<X<X<X<X<X<XOX                                          ",
"          3X7X6X<X<X<X4X<X>X>X$X$X$X>X<X4X:X5X7X4X<X<X<X<X<X4X<X:X;X,X<X<X<X<X<XXX3X4X<X4X<X<X<X<X].' ] e K <X<X<X<X<X<X<X:X!                                           ",
"          ,X7X4X4X<X@X) ( ( E ( ) ) ) @X>X,X7X6X<X4X<X<X4X<X<X<X<X4X<X<X<X<X<X:XOX4X<X2X@X2X<X4X<X=Xv v U <X<X<X<X<X<X2X>X~                                             ",
"          ,X8X6X<X>X>X>X2X<X<X4X4X4X4X<X<X,X8X6X<X<X<X<X<X<X<X<X<X<X<X<X4X<X<XXX,X4X<X<X>X( @X<X<X<X,X,X4X<X<X<X<X<X<X2XXX                                              ",
"          ,X7X4X<X4X<X<X<X4X<X2X<X<X<X4X:X5X7X4X<X>X) ) ) #X2X<X4X<X<X<X<X<X:XXX<X4X4X<X4X2X) ( <X<X<X<X<X<X<X<X<X<X<X~                                                 ",
"          =X7X6X4X<X<X<X<X4X4X4X4X2X4X2X:X7X6X4X<X4X<X2X$X) T ( $X<X<X4X4X<XXX#X4X<X4X<X<X<X<X@XT $X<X<X<X4X<X<X<X>XXX                                                  ",
"            8X6X<X<X4X4X4X<X<X4X<X4X4X2X,X7X6X<X4X<X<X<X<X4X<X@X( ) $X<X<X2XXX<X<X4X<X4X<X4X4X<X$XE >X4X<X<X<X<X<XXX                                                    ",
"            7X6X4X4X<X4X<X4X4X<X<X4X<X<X3X7X4X4X<X4X<X<X4X<X<X4X<X>X@X$X4X#XOX4X4X<X4X<X<X4X<X4X<X>X( >X4X<X<X<XXX                                                      ",
"            5X7X4X2X4X<X4X2X<X4X4X<X4X:X6X7X4X<X4X<X4X4X<X4X4X<X<X4X<X<X<X! <X4X4X4X<X4X4X<X4X<X<X4X>X) <X<X<XXX                                                        ",
"            3X7X4X<X4X4X4X<X4X4X4X4X3X,X7X6X4X4X<X4X<X4X4X<X4X<X4X<X<X4X:XXX4X4X<X4X4X<X<X4X4X<X4X<X<X>X2X<XOXW                                                         ",
"            3X8X6X<X<X4X4X4X<X4X<X4X<X-X8X5X4X<X4X<X4X<X<X4X<X4X<X4X4X<X~ Q ) <X4X4X<X4X4X<X<X4X<X4X<X<X<XOXW                                                           ",
"            -X8X4X<X4X4X4X<X2X>X<X<X<X3X7X4X4X4X4X<X4X<X4X<X<X4X4X<X4X>X~ T A F @X4X4X4X<X4X<X4X4X<X4X<X#XW                                                             ",
"              7X6X4X<X@XT D A g A F T 3X7X4X4X4X4X4X<X4X4X4X4X<X<X4X4XOX#X4X@XA g T <X4X4X<X4X<X4X4X4X:X!                                                               ",
"              7X7X>XT S S S F F G G T 7X6X4X>X$X>X<X4X4X<X4X4X4X4X<X<XXX<X3X4X>XD f T 4X4X4X4X<X<X<X:X!                                                                 ",
"              5X5X) @X>X<X4X4X4X4X4X-X7X#X( G A A A Y @X<X4X4X<X4X4X:XXX4X4X<X4X<XG g ( 4X<X4X4X4X2X!                                                                   ",
"              3X7X4X4X4X4X4X4X4X4X<X,X8X3X<X>X#X( S h h G #X4X4X<X4XXX>X4X4X4X4X4X<XG S >X4X<X4X<XXX                                                                    ",
"              ,X8X6X4X4X4X4X<X4X<X<X3X8X4X4X4X4X4X4X$XT A A ) 4X4X:XXX4X4X4X4X4X4X4X<XY @X4X4X<XXX                                                                      ",
"                7X6X4X4X4X4X4X4X4X2X5X7X4X4X4X4X4X4X4X4X>X( Y $X4XOX:X4X4X4X4X4X4X4X4X>X( <X3XOX                                                                        ",
"                6X7X4X4X4X4X4X4X6X:X7X6X4X4X<X4X4X4X4X4X4X4X>X) >XXX<X3X4X4X4X4X4X4X4X4X>X4X#XW                                                                         ",
"                3X7X4X4X4X4X4X4X4X,X7X6X4X4X4X4X4X4X4X4X4X4X4X4X#XOX4X4X4X4X4X4X4X4X4X4X4X:X!                                                                           ",
"                ,X7X6X4X4X4X4X4X4X,X7X6X4X4X4X4X4X4X4X<X4X4X4X<XXX<X6X4X4X4X4X4X4X4X4X4X:X!                                                                             ",
"                  7X6X6X4X4X4X4X4X,X8X6X4X4X4X4X4X4X4X4X4X4X4X,XXX4X4X4X4X4X4X4X4X4X4X<X~                                                                               ",
"                  5X7X4X4X4X4X4X4X3X7X4X4X4X4X4X4X4X4X4X4X4X4XXX:X4X6X4X4X4X4X4X4X4X<XXX                                                                                ",
"                  3X7X4X4X6X4X4X4X3X7X4X4X4X4X4X4X4X4X4X4X4X<XW F <X4X4X4X4X4X4X4X4XXX                                                                                  ",
"                  -X8X4X4X4X4X4X<X5X7X4X4X6X4X4X4X6X4X4X4X6X#XXXT T 4X4X4X4X4X4X4X:XW                                                                                   ",
"                    7X6X4X4X4X>X:X5X6X4X4X4X4X4X4X4X6X4X4X3XXX<X4X@X$X4X6X4X4X4X:XW                                                                                     ",
"                    5X7X<X#XY D H 7X6X4X4X4X6X4X4X4X4X4X4X:XOX4X6X4X<X4X4X4X6X:X!                                                                                       ",
"                    ,X8X<X>X>X<X:X7X4X@X) E @X4X4X4X4X4X4XOX,X4X4X4X6X6X4X3X<X!                                                                                         ",
"                      7X6X6X4X4X-X7X6X<X$XT D T <X6X4X4X<XXX3X4X6X4X4X4X6X<XXX                                                                                          ",
"                      5X6X4X4X6X,X7X5X6X4X6X<X$X@X<X4X6X#X#X6X4X6X4X4X4X4XXX                                                                                            ",
"                      ,X7X6X4X6X,X8X4X4X6X4X4X4X4X4X4X4XXX3X4X6X4X4X6X4XOX                                                                                              ",
"                        7X6X4X4X,X7X4X4X6X4X4X4X4X4X6X:XOX4X6X4X6X4X6X#XW                                                                                               ",
"                        5X7X4X4X3X7X6X6X4X6X4X6X4X6X3XXX<X4X4X6X4X4X:XW                                                                                                 ",
"                        -X7X4X4X3X7X4X4X6X4X6X4X4X6X<XXX4X6X6X4X6X,X!                                                                                                   ",
"                          7X6X4X3X7X6X4X6X4X4X4X6X4XOX:X6X4X6X6X<X!                                                                                                     ",
"                          3X7X4X3X7X4X6X4X6X4X6X4X3X! <X4X4X6X4XXX                                                                                                      ",
"                            7X5X3X6X6X4X6X4X6X4X4XOX:X6X6X6X3XXX                                                                                                        ",
"                            5X6X3X7X4X6X4X6X4X6X4XXX4X4X6X4XOX                                                                                                          ",
"                            -X6X,X7X6X4X6X4X6X6X:XOX6X6X4X#XW                                                                                                           ",
"                              3X3X6X>X4X4X6X6X4XXX<X6X4X:XW                                                                                                             ",
"                              -X5X3X@X) @X4X6X:XOX6X6X:XW                                                                                                               ",
"                                -X7X4X6X>X>X3XXX,X6X:X!                                                                                                                 ",
"                                -X7X6X4X6X6X,XOX6X,X!                                                                                                                   ",
"                                -X7X4X6X6X4XOX,X,X!                                                                                                                     ",
"                                  6X6X6X6X:XOX,X!                                                                                                                       ",
"                                  6X6X6X4XXXOX!                                                                                                                         ",
"                                  5X6X6XOX! !                                                                                                                           ",
"                                  :X6X:XW W                                                                                                                             ",
"                                    oX!                                                                                                                                 "
};
