/* XPM */
static char *_40ff0b55f234cebbf663a1c17d10e18xLH3ztGtROr3Dgvg[] = {
/* columns rows colors chars-per-pixel */
"90 85 207 2 ",
"   c None",
".  c #1E0F02",
"X  c #150B01",
"o  c #1F1002",
"O  c #231202",
"+  c #2A1603",
"@  c #2E1803",
"#  c #221509",
"$  c #2D1D0D",
"%  c #331B04",
"&  c #3A1E02",
"*  c #331E0A",
"=  c #2C1F12",
"-  c #241C14",
";  c #3D2002",
":  c #34200D",
">  c #3B230B",
",  c #2C2115",
"<  c #2B241B",
"1  c #2F281F",
"2  c #332313",
"3  c #3A2612",
"4  c #3B2814",
"5  c #31251A",
"6  c #35291E",
"7  c #3A2B1C",
"8  c #2D2721",
"9  c #2E2822",
"0  c #2F2B2A",
"q  c #332C24",
"w  c #3A2E22",
"e  c #322D2A",
"r  c #312720",
"t  c #3B3125",
"y  c #36312C",
"u  c #3B342C",
"i  c #363331",
"p  c #3A3632",
"a  c #3D3A35",
"s  c #3E3C38",
"d  c #442402",
"f  c #4A2701",
"g  c #4E2902",
"h  c #422609",
"j  c #43280B",
"k  c #4C2C09",
"l  c #542C02",
"z  c #582F02",
"x  c #512F09",
"c  c #573005",
"v  c #5A3103",
"b  c #55320D",
"n  c #5A340B",
"m  c #432C13",
"M  c #422E19",
"N  c #4D3215",
"B  c #45311C",
"V  c #563514",
"C  c #583714",
"Z  c #5D3914",
"A  c #5B3C1C",
"S  c #573A1B",
"D  c #623506",
"F  c #673907",
"G  c #693A07",
"H  c #633608",
"J  c #66390A",
"K  c #6B3C0B",
"L  c #703F0E",
"P  c #613C15",
"I  c #693F13",
"U  c #613E19",
"Y  c #433424",
"T  c #41362B",
"R  c #44392C",
"E  c #4C3B2C",
"W  c #563D23",
"Q  c #443D35",
"!  c #493E34",
"~  c #423E3A",
"^  c #6F400F",
"/  c #72410E",
"(  c #674016",
")  c #6C4217",
"_  c #6E4418",
"`  c #67431E",
"'  c #744413",
"]  c #7A4814",
"[  c #704518",
"{  c #75491A",
"}  c #7C4D1C",
"|  c #784713",
" . c #56412B",
".. c #59432B",
"X. c #4C4135",
"o. c #45423D",
"O. c #4B443C",
"+. c #4F483F",
"@. c #544434",
"#. c #50473F",
"$. c #51483F",
"%. c #5A4C3D",
"&. c #6C4622",
"*. c #6D4923",
"=. c #6A4A2C",
"-. c #644629",
";. c #6A4C33",
":. c #654D3A",
">. c #684D38",
",. c #66513D",
"<. c #6D553E",
"1. c #735231",
"2. c #474440",
"3. c #494641",
"4. c #4E4B46",
"5. c #4D4A45",
"6. c #4F4C47",
"7. c #4D4A45",
"8. c #4F4D48",
"9. c #534C43",
"0. c #584F46",
"q. c #514E49",
"w. c #514E49",
"e. c #595047",
"r. c #55524D",
"t. c #55524D",
"y. c #57544E",
"u. c #55524C",
"i. c #5B534B",
"p. c #555047",
"a. c #575550",
"s. c #595651",
"d. c #5A5651",
"f. c #5B5852",
"g. c #5C5953",
"h. c #5D5A54",
"j. c #5F5C56",
"k. c #5E5C55",
"l. c #5D5A54",
"z. c #5B545D",
"x. c #674F41",
"c. c #645244",
"v. c #60564C",
"b. c #62584F",
"n. c #6B5B4B",
"m. c #605D57",
"M. c #605D56",
"N. c #635C54",
"B. c #685E55",
"V. c #615E58",
"C. c #625F59",
"Z. c #635F5A",
"A. c #625E59",
"S. c #605353",
"D. c #6B6157",
"F. c #63605A",
"G. c #65615B",
"H. c #66635D",
"J. c #65625C",
"K. c #68645F",
"L. c #6C635A",
"P. c #6C685F",
"I. c #716357",
"U. c #71665C",
"Y. c #74695E",
"T. c #796A5B",
"R. c #76614B",
"E. c #545C7B",
"W. c #565B74",
"Q. c #56586D",
"!. c #605A60",
"~. c #5F6171",
"^. c #6A6660",
"/. c #6A6661",
"(. c #6C6862",
"). c #61606C",
"_. c #746B62",
"`. c #796E64",
"'. c #726F68",
"]. c #7C7065",
"[. c #75726B",
"{. c #7A746B",
"}. c #696E7D",
"|. c #747276",
" X c #814F1B",
".X c #81501D",
"XX c #846D56",
"oX c #82766B",
"OX c #84796E",
"+X c #8C7D6E",
"@X c #857666",
"#X c #867B70",
"$X c #887D73",
"%X c #8D8176",
"&X c #8E8479",
"*X c #92867A",
"=X c #938578",
"-X c #555F80",
";X c #5B6685",
":X c #626D89",
">X c #6A7794",
",X c #767981",
"<X c #77849C",
"1X c #968B81",
"2X c #9F948A",
"3X c #A2988E",
"4X c #A49A90",
/* pixels */
"                                                                          r.u.u.t.a.a.      3.Q T Q G.^.K.P.^./.                                                                    ",
"                                                                      u.6.4.3.4.5.4.w.w.u Q 7.7.o.u Q M.P.C.j.K./.^.                                                                ",
"                                                                  u 9.4.4.4.4.4.5.5.5.t.p Q 6.4.9.o.u q o.f.M.K.K.V.Z.G.                                                            ",
"                                                              (.f.Q u 4.4.4.3.4.5.4.w.a.Q ~ 6.4.6.7.4.~ q u o.r.M.p.w.4.4.                                                          ",
"                                                          K./.K.H.M.O.u 3.4.4.4.5.w.a.a.i ~ 4.5.4.4.3.8.3.s 1 q a o.a q q X.G.(.F.F.F.                                              ",
"                                                  f.o.p M.j.f.f.f.G.y.y 3.6.4.3.5.5.w.5.i 2.7.5.6.3.4.6.6.u.p , 1 q < , r f.H.G.F.F.j.j.F.                                          ",
"                                                  p a p f.M.j.s.M.V.o.e 2.3.4.4.5.5.5.p i 3.7.2.8.8.u.r.s p y 8 o.o.y < Q F.j.s.j.j.f.f.j.j.                                        ",
"                                                u u q 8 ~ f.G.G.H.s.a 1 e a o.o.3.3.p e e ~ ~ i o.3.3.6.s y y i s y i 9 r.V.j.f.f.s.f.F.j.r.F.                                      ",
"                                            ! y.j.m.s.Q r p w.j.G.8.a < = 5 5 q e e e r 2 : 2 2 6 q y y y y e e i u y u j.V.f.r.k.j.j.j.j.j.F.                                      ",
"                                        u u r.V.V.V.V.V.9.e a 2.3.o.u * % % * % % * * % % @ % % % % * : : * * 2 0 u t o.V.V.j.j.j.k.r.r.F.G.s.Q                                     ",
"                                      3.u O.M.V.j.r.j.j.V.6.e i s i q * % % % % @ + + o o o o o O O O O + @ @ % $ 2 t Q q.f.F.H.a.f.r.k.K.H.3.y o.~ s                               ",
"                                    4.7.u y.M.s.j.j.s.r.j.j.i e e e < % % % O o o O + % & & d d & % + + O O O + @ % % 3 u o.q.u.2.r.F.G.H.t.o.9 s s s                               ",
"                                    Q y q s.j.f.f.j.s.y.m.m.T : 5 2 * @ O o O @ & g l z l z l z l l d v l f % O O O @ % : 4 Q o.o.3.f.k.4.o.a 1 a p p                               ",
"                                  2.a 1 = 2.Z.V.j.V.j.j.Z.y.u % % @ + o O & f g f z z z g z l z l g g H D v v l d O o O % % : 7 T o.o.o.o.o.i q q q y u                             ",
"                                2.s s a e e 5.Z.K.H.G.H.z.2.M % + o O & g g l l f z l z l l l z l g f D v v v l v g ; O O + @ % % 2 a ~ ~ i p 3.7.o.u q                             ",
"                              o.a s a a a e e ~ w.y.s.w.2.T % O o % g z l g l g f l z z z l l z z g f D D v v z v l c f + o O @ % % * q e s q.q.7.7.6.u q                           ",
"                              s s a s s p 0 y p p ~ ~ ~ Y $ . O d g l z l g g l f z z z z l g z z g f n D z v z v z z l g % . o + % % % 2 3.4.4.7.7.4.p q 3.                        ",
"                              u i p p p y 1 s 3.i r r 5 + . + d z l l z l g l g g z l z l z l l l l f D D z v z z l l l l f O O O O % % * O.7.7.7.7.4.p i s s                       ",
"                              o.Q p q 9 1 < o.2.e 2 % + . + x z z z l z l g l l f l z z z l g z l l f z D z v z z l z g l f l f O . + % % Y 4.4.4.4.7.i p a s                       ",
"                          (././.H.V.y.O.1 , p y 5 % + O O d H z z l l z z g g l f z z z z z l l z g g c D z v z z l z l l g c D & . O % % * Q 4.3.4.4.i p s a p                     ",
"                          F.F.j.H.H.j.j.3.2 * * % @ O O d l D z z l z z z g g l g l z z z z l l l g f c G l v z z l z g l f c D l & . O % % 2 Q 4.w.w.i i i p i                     ",
"                        F.j.k.f.j.g.8.f.j.e % % % O . ; f l D z v z z l l l l l g z z z z z l l l l g c G l z z z l l l l f c v z l @ o @ % * 5 p ~ p e 9 r q u                     ",
"                        F.M.f.f.s.j.8.3.4.p * % + . % g f c D z z l l z l g g l f z z z z z z l l g g l G l v z z l z l l g c D z z g O O % % % 2 q q 1 a 0.f.f.                    ",
"                        j.V.F.j.j.j.j.2.o.i 5 % O + f l f l D l z l z l z g l l g z z z z z l g l l g l K z v z l l l l l l z v z z l d . @ % % % 2 u 9.M.G.H./.p.                  ",
"                        6.r.M.F.H.H.f.2.~ i 5 @ o & g g f z H z z l l z l l g l g z z z z z l l l l f l G z v z l l z l l g z v l z l v % O % % % : u.j.a.j.j.G.t.                  ",
"                        t u o.6.r.t.3.o.i e $ O % g l l f c D l z l z z l g l l f z z z z z l l g l g l G z v z l l z g l g c v z z z v f O O % % > y.j.f.F./.K.8.                  ",
"                      p.Q q < 9 y u t 6 5 5 @ o f l g g f z D z v l z l l l g l g z z z z z z l l l g g G z v z z l l g z g c v l z v v l % O @ % 3 f.j.F.K.F.t.~                   ",
"                    /.K.G.y.y 1 o.u 2 % % % O @ l l g l f z D z z l z z l g l l g z z z z z l l l g g g G z v l l l z l z g z v z l z v l f O + % > f.C.H.t.o.o.q p                 ",
"                  (.F.j.j.s.a q w.o.e 2 @ @ O d z l g l f l D z z l z z l g l l g z z l l v l l g l g f G z v z l l z l l g l v z z z v l l % O % > 0.g.j.o.o.s u j./.              ",
"                H.F.j.s.j.r.u u 4.o.0 5 % O O g z l g l f c H z z l l l l g g l l l z z z v l l l l l f G z v l z l l g z g l v l z z v l l f O + * 9.a.a.7.o.i 4.j.V.w.            ",
"                F.j.g.j.j.3.q Q 4.a e 2 % o & l z l g l f c H z z l l z z g l l g l v l z v l l l l g f G z z l z g l g z f l v l z c v l l g O O @ X.a.s.w.~ i a.j.r.2.            ",
"                K.H.G.j.4.p 1 o.3.y 0 2 @ o f z z l g l f c D z z l l z l l g l l l z l z v l g l l g f G z z l z l z g l f l c c l c c l l l % O @ B j.j.t.~ i j.V.p.o.            ",
"                  s.p.3.a q q o.p e q @ O + l l z l g l g v D v z l l z l l g l g z z z z z l l l g g f G z v l z l z l l f g v z l z v l l l & O @ * O.w.3.s e 7.V.u.o.            ",
"                  Q s p q t 9 i i e = O . % l l z l g l g v D v z l l z l g g l g l z l z z l l l l g f H v v l z g l l l f l v z l z z l z l f O + % w ~ o.p 0 r ~ 2.              ",
"                  9.o.+.u < 9 p e 2 + . o f l l z l g g g c D v l l l z l g g l l l z l z z l l l l g f H v z z l l l l g d g D l l z z l z l f @ O % * e s Q 3.Q q R               ",
"                t.8.w.3.y q w.F.o.* O O h n J J G H H H H K K K G H D G G H H F H H D D D H D H H H v v K G G G D D F v H v H J H D D D c D z z % o % * Q 6.w.3.y < T               ",
"        N.B.    3.3.6.~ q w.F.V.w.5 O w W H H H C C J J J J J K K G K G K K K L K L L L L L L L L L L L L L L L L L L L L L L L L / / L / K K K f O @ * ! 7.~ e u o.V.              ",
"    {.%X=X#X  4.6.6.3.y Q V.V.V.a.r o w w h g g 3 R g g g f g g f g g g g g g g g g l g g l g g l g g g l l g g l l l g l l l c g l l l l l l l f o + * q q e 9.V./.g.              ",
"O.].=XY.N.e.  w.4.3.o.9 3.F.k.C.a.w . 6 Q 7 k z k 4 j l l l l l l g g g g l l g g l g l l l l l g g g l l l l l z l l l l l l l l g l l l l l l g O + % 2 1 w.m.j.M.8.e.U.`.'.N.    ",
"9.].b.+.      r.4.2.y 1 6.j.k.C.a.w o 7 w = 2 3 2 = w 2 7 k g l l l l l l g l l l l l l l l l l l l l g l g g g g l l g g g l g g g g g g g g l g @ + % 2 y j.a.r.V.p.Y.OXOX$X=XN.  ",
"0.D.+.          4.2.y < 3.C.a.k.s.t # w w = = = , = t , 7 3 g l l z l l l l l l l l l z l l l l l l l z l l l l l l z z l l l g l l l l l l l l l @ + % 3 u j.V.Z.s.4.9.0.9.9.N.Y.9.",
"9.i.! O.N.*X`.u s s y < s C.C.C.r.i O w u 2 > f h = > > ; g l l z l z l c c l z z z z z l l z z l l l g l l l l l l g l l l z z z z l l l z z l l + + % w q ~ r.w.3.o.    i.  O.i.0.",
"  +.O.Q b.3X3X+.< 8 < < 1 3.f.g.4.p # w p 3 l l j t k D n D F J J J K L L L | L | L | | | | | | ' ' ' | | | | | L L L I I I K L L K P c l l z l l O + * O.p.Q a a o.o.O.=X4XB.Q ! %.",
"  9._.B.i.L.$XD.9 - < < , < u o.~ e # 7 w h l l > W ] .X.X.X.X.X.X X X X} .X.X.X.X} .X.X} } } } } } } } } } } { } { { &.{ { I { *.[ [ I l g l g f O @ % +.a.y.4.1 q T D.1XOXe.! 0.9.",
"      L.0.B.I.`.X.< , , , , 1 i i 0 # + g l f f j I ) x.n.` ) ) I ` I { &.I I &.I ` I _ I ` ` ) I ) I ) ) I ) ) _ I I [ I { =.|.:Xx.[ I k & % % @ O @ % O.s.s.7.< < %.].L.N.o.i.'.  ",
"          B.B.U.e.q , , - u 6.4.3.i # + z c z z c I :.<X<Xz.) ) I I I I { I I { { I [ [ [ [ _ _ [ [ [ _ [ [ [ [ _ _ [ [ I I c.>X;X!.[ [ P & & % % . @ % R s.w.u < u B.U.D.e.! 9.    ",
"          0.L.D.b.Q < < < i w.t.a.p # + z v l z z I v.~.E.z.` ) [ I I &.I I I I I I I U I U I I U ` ) I I ` I ` _ I I [ [ [ ;.Q.W.v._ ) I l f g d O @ % 3 e.B.0.X.9.D.D.N.          ",
"        O.O._.oXb.o.X.r < 9 t.g.s.a O @ l v x z x I &.S.z.;.) ) &.I [ [ &.I &.I I &._ _ _ _ _ [ [ _ _ _ _ _ [ _ _ _ &.I I I I -.;.` ) ) I z l f d O @ E T.`.B.9.O.e.L.N.0.          ",
"        O.9.i.].i.O.v.v.6 = ~ g.s.R + + l D z z z ) ) [ _ ) _ _ ) ) ) ) ) ) ) I ) ) ) I ` I ) I ) ) ) ) ) ) I ) _ ) [ ) ) [ [ ) ) ) [ _ I l c C V = ! Y.b.#.#.9.O.9.b.9.!           ",
"        $.B.%.O.! O.7._.v.< q w.s.R + O l z z z c I _ ) ) ) _ ) ) ) ) _ _ _ ) _ _ [ [ [ [ [ [ [ [ [ ) ) [ ) ) ) ) ) ) ) ) ) [ ) _ _ _ ) 1.XX+X=X+XT.v.+.7.Y.Y.B.9.! #.#.O.          ",
"        e.Y.B.O.O.0.O.0.].+.< y 7.6 + @ l v l z z I ) ) ) ) ) ) ) ) ) ) ) ) I ) I ` I ` ) ) ) [ _ ) [ [ ) [ [ [ [ ) [ ) _ [ ) [ _ _ ) &.`.oX_.D.L.I.U.i.D.B.9.#.0.i.D.0.3.          ",
"        v.D.$Xi.i.9.! O.L.P.u < = * @ O l z z z l I U U P P P P P P P P P A P Z Z C Z C C Z C Z Z Z Z Z Z Z Z Z A Z Z C C Z Z A A P P P c.e.i.v.9.0.e.i.O.O.#.i.`.OXD.0.            ",
"          i.%X$X#.O.9.7.#.L.O.1 < = + O l v z z l V Z Z C C C C V V V V V V V V C C C C C Z C C S C C C Z Z Z C C C C C C C C V V V V C @.b.`.B.O.O.#.#.i.I.#X*X$XD.b.I.            ",
"          0.N.*XY.i.N.e.O.9.9.t = = = # l v z z l n Z Z Z Z Z C Z Z Z Z Z P Z Z Z Z P Z Z Z P Z Z P P P P P P P P Z P P P Z P Z Z Z Z A c.9.i.0.9.@.v.b.B.L.B.b.N.`.#XY.            ",
"            0.B.OXB.i.f.b.Y.oX$XY.! y < g z z z l b Z Z Z Z Z Z Z Z Z Z C C C Z Z P Z P Z P Z P P P P P P P P P P P P P P Z Z P P Z P U T.9.9.B.9.9.7.9.9.0.B.].&X=XY.i.M.          ",
"              9.b.Y.i.9.N.N.B.T.+X=X_.u l z z l z n Z Z Z P P P P Z P Z Z P P Z Z Z Z C Z Z Z Z Z Z Z Z Z P Z Z P Z Z P Z P Z C Z C C P n.! O.i.O.O.$.v.b.B.B.B.b.9.#.m.H.          ",
"                9.0.B.0.O.#.9.0.i.Y.+XI.V Z D l z b C Z Z C Z Z Z Z Z Z Z Z P P P P P P P P P P P P P P P P P P Z P Z Z Z Z Z Z Z Z Z Z @.2.O.! N.0.9.9.+.9.$.7.! u 6.s.j.          ",
"                i.9.7.c.#.! 9.b.i.0.B.`.n.I.@XR.S V Z Z Z P P A P Z Z Z C C V C C S C C C C Z C C C C C C C V C V V V V V V V V V V V V A c.3.O.e.O.Q M 7 Q o.Q q 2.g.j.t.          ",
"                N.0.9.7.7.9.9.9.0.0.0.N.@XB.].#X@.b A Z S C A Z Z Z Z Z Z V C V V V V V C C C C C C C Z C Z Z Z P P P P I P I P I I ` I Z @.! R B = * % 3 ~ a < q j.Z.j.3.          ",
"                H.m.e.#.#.! ! O.9.7.9.9.B.v.i.b.c.-.I _.,X,.I I ) I ( ( ( ) ) ) ) ) ) _ ) [ ) [ _ [ [ [ [ ) _ _ _ _ _ _ ) ) &._.|.;.) I V V l g h O % % R w.4.Q 8 0.a.3.p           ",
"                /.Z.a.O.! 9.L.w.3.0.Y.e.e.B.e.U.oXx.:.:X>X).U [ ) [ _ _ ) _ ) _ _ [ ) ) ) ) ) ) ) ) ) ) ) ) ) ) ) _ _ ) ) _ c.>X>X!.[ ) I z l g d O @ % Q w.w.o.1 q u u q           ",
"                j.w.2.i R ! i.3.! y.=XT.O.$.0. .%.W ;.W.E.z._ I ) ) ) ) ) ) ) ) ) ) _ _ [ _ _ [ ) [ _ _ _ _ _ [ _ _ _ [ _ _ :.E.E.S.) [ I l l g d O @ % t o.o.e 1 r q u             ",
"                  o.p 5 ~ ! ! ! ! 9.+X=Xi.! i.C x V ) =.x.*.) ) ) ) ) ) _ ) _ ) ) _ ) _ _ _ ) ) ) ) ) ) ) ) I _ ) ) ) ) ) _ ` >.x.&.I I I z l g d O @ % w 1 9 8 1 a 3.4.3.          ",
"                  Q q = p p Q ! Q ! e.].oXv.7.` G H _ [ [ =.*._ _ [ _ _ [ _ [ _ [ [ [ _ _ [ [ _ [ _ [ _ [ _ _ _ _ _ _ _ _ _ [ [ *.&.*.[ [ I J D f O % * t u w.O.q o.4.4.o.          ",
"                  K.N.Q r 1 q +.! Q O.9.B.B.%.S V w A _ &.>.*._ [ ) ) [ _ _ [ [ [ [ [ [ ) [ ) ) _ _ _ I _ I ) ) ) ) ) ) ) ) ) ) =.>.*.I _ K G K b O % % w d.F.M.o.p 3.3.s           ",
"                  Z.G.G.Q u m.G.r.O.! O.0.9.! N g M B I I I I I I I I I I ) ) ) I ) ) ) [ ) [ _ _ _ _ [ _ _ I _ ) ) ) ) I ) ) ) I _ I _ I l g l g O @ % Y Z.G.M.u.u y s p           ",
"                ^.K.M.Z.7.y.K.G.Z.r.p 5 O.0.i.9.B 3 2 4 m k z z l l l l x z x z c z z x x z c z z z z x z x z z z z c z z l z z z z x z z l l l f o % % 9.^.A.N.r.o.1 1 q           ",
"                P.M.m.f.7.Z.C.f.M.y.i < T u ! ! q = w w 5 u h l l l l l z z l l l l l l l l l l l l l l z l l l l l l l x l l l l l l l l l l z g o % * v.^.A.z.j.2.u r             ",
"                K.G.H.f.o.j.g.t.s.r.i 1 u 5 2 M m * = 2 * > l l l l z z z z z z z l z z z l l z z l l l z l l z l l l l l l l v z l z z z z z z g O @ > j.(.H.g.j.6.p a             ",
"                P.G.f.7.y w.g.j.V.p.i 5 T w > l g 3 > l l z z l l z z z z z z z v z v z z z z z z z z z z z z z v l v v v v v v z z z z z z z z g O @ * 0./.Z.Z.F.f.Q a             ",
"                  7.Q e , q t.j.V.7.e < T 4 l l j q M l z z l l l l l z z z z l z z z x z z z z l l l l l l l l l l l l l z l l l l l l l l l z g O % % t 5.3.j.V.t.p y             ",
"                  o.9.r.9.u y o.2.~ e $ 2 j f g f & & & h f g f d d & & & & & & ; g g f f f h & & & & % & g l h d d & d & & % ; f d & d & d & * % o @ % < i a s s u 1 y k.          ",
"                  H.G.H./.V.r.~ i 0 0 = O l l v l l g g f c D z l l f f & & % % & l z l l z l g g f d & & l v z l l g l f f d l z l l l g l f d & O % % 2 e y q q u 3.y.V.j.        ",
"                H.M.j.V.V.j.s.y.t.s i 8 + g l v l g l g l D D v l z l l l l f f g l v z l z l l l g l g d l v z l l l l g g f l z z l l g l l l & O % % : 7.g.f.m.j.f.j.G.u.        ",
"                F.f.r.j.j.s.r.a.j.8.a 9 # g l v l g l l l v D v z z l l g l g g l l v z l v z l g l l l f g v v l l l l l f f l v z z l l l l g & O @ % R V.j.f.f.j.j.H.V.3.        ",
"                V.j.y.j.s.f.g.g.Z.w.o.e # f c c l l l g l l D v z z g z l l g g g l z z l v l l l g l g d l v z l l l g g g f g z z l z g x l l & o % * 9.V.j.j.G.K././.r.2.        ",
"                F.V.V.V.j.j.r.s.j.8.2.0 # f l v l l l l l l D z c c l l g l g l g l z z l v z l g l l l d l v v l z l l g g f l v z l z l l l l d o @ 3 f.G././.^./.H.r.o.~         ",
"                V.V.V.V.j.j.j.V.j.5.~ e 2 N b b k k k k k k n c b c k k k k k k k g x x k b x k f k k k > m b x g x k k f k h k x x k x k k k k > = 7 7 N.K.H.V.s.w.3.o.~           ",
"                  f.M.j.j.V.V.j.w.o.~ w.P.P.F.D.k.f.f.N.f.k.N.N.F.M.N.j.e.i.r.p.9.9.9.p.e.e.y.e.r.e.y.y.i.y.p.p.9.6.6.9.8.9.u.u.p.y.i.y.y.i.y.p.y.f.H.f.o.o.3.o.o.o.o.s -           ",
"                    o.9.w.r.8.2.s o.j.'.'.'.'.[.[.[.[.[.{.{.[.[.{.{.[.[.{.[.[.{.[.[.[.[.[.[.[.[.[.'.[.'.[.[.'.'.[.'.'.'.[.'.'.'.'.'.'.'.[.'.'.[.[.'.'.'.K.Q < 8 9 q 8               ",
"                                  o.4.s.j.M.V.Z.M.m.N.N.N.C.N.m.M.m.f.f.f.f.s.r.r.w.r.w.p.y.f.m.V.K.K.^.(.(.(.(.^././.K.K.H.G.G.V.V.Z.V.Z.Z.V.j.j.a.w.w.4.u                         ",
"                                  O.X.X.X.X.@.! W W W W           R T u p p s ~ o.o.~ 2.o.o.~ o.Q ~ o.o.o.3.o.o.2.2.o.o.o.o.o.o.O.O.o.O.Q Q Q a p a ~ o.o.y X                       ",
"                                                                            9 e q u T ! E !               Q Q R u u p i u T E ..                                                    ",
"                                                                                                                                                                                    ",
"                                                                                                                                                                                    "
};
