/* XPM */
static char *_3cae2ec52f3435cdbca62cef73e4326sm2VvhoNfjOCH1bK[] = {
/* columns rows colors chars-per-pixel */
"84 90 160 2 ",
"   c None",
".  c #1E170C",
"X  c #1F180D",
"o  c #251B0E",
"O  c #291E0F",
"+  c #221C12",
"@  c #2A1F10",
"#  c #2A200F",
"$  c #252016",
"%  c #2D2211",
"&  c #26231A",
"*  c #2A261C",
"=  c #2C281F",
"-  c #312613",
";  c #362914",
":  c #3B2D16",
">  c #322B1E",
",  c #3E2F18",
"<  c #3F3017",
"1  c #3F3018",
"2  c #2C2B22",
"3  c #322E24",
"4  c #333027",
"5  c #3C3222",
"6  c #35332A",
"7  c #39362C",
"8  c #3C392E",
"9  c #3D3B31",
"0  c #403017",
"q  c #443319",
"w  c #48371C",
"e  c #4B391D",
"r  c #403421",
"t  c #473820",
"y  c #433B2D",
"u  c #413E35",
"i  c #444136",
"p  c #494234",
"a  c #464339",
"s  c #4A463B",
"d  c #4D493E",
"f  c #544A36",
"g  c #514C3F",
"h  c #5B513E",
"j  c #4F4B40",
"k  c #524D42",
"l  c #565145",
"z  c #5A5446",
"x  c #5B564A",
"c  c #5E584C",
"v  c #625C4E",
"b  c #695F4C",
"n  c #645E51",
"m  c #6C604D",
"M  c #676153",
"N  c #6A6455",
"B  c #6C6658",
"V  c #6F685A",
"C  c #726957",
"Z  c #736C5D",
"A  c #77705F",
"S  c #78705F",
"D  c #766F60",
"F  c #777061",
"G  c #787161",
"H  c #787162",
"J  c #797162",
"K  c #797262",
"L  c #797263",
"P  c #7A7263",
"I  c #7A7363",
"U  c #7A7364",
"Y  c #7B7364",
"T  c #7C7565",
"R  c #7D7566",
"E  c #7D7666",
"W  c #7E7666",
"Q  c #7E7767",
"!  c #7F7767",
"~  c #7B7464",
"^  c #7F7867",
"/  c #7F7768",
"(  c #7F7768",
")  c #7F7868",
"_  c #7F7868",
"`  c #807868",
"'  c #807968",
"]  c #817969",
"[  c #807969",
"{  c #827A6A",
"}  c #827B6A",
"|  c #837B6B",
" . c #847C6B",
".. c #847C6C",
"X. c #847D6C",
"o. c #857D6C",
"O. c #857D6D",
"+. c #857E6D",
"@. c #867E6D",
"#. c #877F6E",
"$. c #867F6E",
"%. c #857D6C",
"&. c #887F6E",
"*. c #88806E",
"=. c #88806F",
"-. c #89816F",
";. c #88806F",
":. c #898170",
">. c #8A8270",
",. c #8A8271",
"<. c #8B8271",
"1. c #8B8371",
"2. c #8B8372",
"3. c #8C8372",
"4. c #8C8472",
"5. c #8D8573",
"6. c #8D8473",
"7. c #8E8573",
"8. c #8E8674",
"9. c #8F8775",
"0. c #8F8674",
"q. c #8C8372",
"w. c #908775",
"e. c #908775",
"r. c #908876",
"t. c #918876",
"y. c #918977",
"u. c #928977",
"i. c #928A77",
"p. c #918977",
"a. c #938A78",
"s. c #938B78",
"d. c #938B79",
"f. c #928A78",
"g. c #948B78",
"h. c #948B79",
"j. c #948C79",
"k. c #958C79",
"l. c #958C7A",
"z. c #958D7A",
"x. c #968D7A",
"c. c #968D7B",
"v. c #968E7B",
"b. c #978E7B",
"n. c #978E7C",
"m. c #978F7C",
"M. c #958C7A",
"N. c #988F7C",
"B. c #988F7C",
"V. c #99907D",
"C. c #9A917E",
"Z. c #9B927E",
"A. c #9B927F",
"S. c #9C937F",
"D. c #9A917E",
"F. c #9C9380",
"G. c #9D9381",
"H. c #9D9480",
"J. c #9E9581",
"K. c #9C9380",
/* pixels */
"                                                              J.J.              F.K.K.C.C.C.C.5.                                                                        ",
"                                                        K.K.C.C.C.C.t.    F.C.C.n.t.5.7.N.C.b._ I                                                                       ",
"                                                    S.b.s.n.n.n.C.t.Z / K.C.b.7.<.#.#.<.n.C.7.T D I                                                                     ",
"                                                C.b.r.<.=.<.4.<.d.I c | V.7.=.=.=.<.7.b.b.s.<._ F Z n F n.s.7.s.s.N.F.J.                                                ",
"                                              <.=.=.#.#.#.#.#.#.+.v x ] <.#.#.#.#.$.<.#.#.#.O.E F M l / r.$.&.$.#.<.s.C.C.J.                                            ",
"                                        F.C.#.E E #.#.#.#.+.#.| Z j l T =.=.#.#.#.#.#.#.#./ U U V z l / =.$.$.$.#.#.r.n.b.h.h.                                          ",
"                                    F.C.C.C.3.] Z B F U F F I D n 9 a c Z E _ | ] | | | T D D D n k x U | =.$.$.#.#.<.=.#.] Z I                                         ",
"                                  C.C.C.C.C.7.#.] M n B D D D N j 9 6 j x c n N Z D U D I F D N c i x F F _ #.$.#.#.#.#.| Z c M                                         ",
"                                9.n.K.K.s.7.<.#.+.V j j v n v d 9 4 2 4 8 i i i s k x N B N n x l 9 j Z F H U _ +.] / _ T Z x x                                         ",
"                                $.&.6.2.&.$.#.#./ V u 4 s j 9 3 * + + X X X + + + + + & * * 4 9 u 6 7 x N Z D F F F F F F V l l                                         ",
"                              <.$.$.$.$.$.O.O.` F M 7 2 & + X . . . . . . . . o o o @ o X . X X & & 2 7 j k n V F F F D D c x / b.C.C.K.                                ",
"                              ] O.$.$.( U H H H D l 2 X X X . . . . . . . o . o o o o o o o X . . . . + 2 4 9 j N D D B x s V 7.C.C.C.C.C.                              ",
"                  C.C.C.C.t.7.F n D U D D D D V x 7 + X X o o o + o o o o o X o o o O o o o o o + X X X . + & 4 9 l x l 9 s D =.n.n.b.d.s.7.                            ",
"                  <.<.7.t.=.#./ j j c B B n c j 9 & X X o o o o o o o o O o o o o o o o o O o o + + o X . . . X 2 2 9 6 4 j F E =.=.=.#.#.#.                            ",
"                =.#.#.#.#.#.E I j 4 9 9 9 9 7 2 + X . X o o o O o o o o O O o o O @ @ % % o o o o O o o . . . . . + & 2 2 j D F _ #.#.#.#.#.<.                          ",
"                =.#.#.#.| E F Z j 2 + X + . X . . X X X # % % - % o # o o o o O % - - % - % O % % o o o X . . X . . . + 2 7 c V D / #.#.#.#.$.                          ",
"              C.c.7.$.` U D V c 9 2 . X . X o o . . . o # % % % % O - @ o o o # % - % - ; ; O # % o O o o . . o o . . . X & 7 l n V U O.$.$.$.&.                        ",
"            N.s.9.2.O.H D n x a 4 + . . . @ o o o . . o % % - - - O % @ o O O - - ; ; ; : : O - % o @ o o . . o # o . o X X + 4 k x N F [ $.| / U                       ",
"          #.#.#.$.$.( D n l u 4 + . . X o o @ o o o o o % - : ; % @ @ - O O O O - : : : : - - - % o % O o . . # % O o o o X X X 2 s x B D D D n n                       ",
"            I ] $.O.U Z c u 2 + . . + @ @ @ @ @ o o . o - ; : ; - % - - - O O O ; : : : : - ; ; % O # O o . . % - % % o o o + X X * 9 l D V x x                         ",
"            l n D D D n k 6 X o o o o @ - % - % % O . o - : : ; % - % - - O o O : : : : : : : : % O % % O o . % ; : ; % @ @ o X . X + 4 u l N E / U U                   ",
"            6 4 7 a l l s 2 X o o o @ % % - - - - % o o % : : : - - - % - O O - : : : 0 : q q : % O % % % o o % : : ; % % % o X . . X & u E &.` F D V n                 ",
"            N s 6 2 2 2 2 + o o o @ - % - - - - % % o O - : : : : - - - - O o % : : q q 0 q q : % O % - % O o # : : : - - ; - O o X . X 8 H #.#.+.U D M c               ",
"        <.U I Z x a 7 2 & o o o @ : ; - - : : % - % o O - : : : : - : ; - - O - : 0 w w 0 w q , % - - % - O . O : : < - : : : % o o o X o g Y w.s.#.] T N c             ",
"      F.C.7.] F D n j 9 2 X o o % : ; - : : ; - - # # # ; : 0 : ; - : ; - % O % 0 q w w 0 w q : - ; - - % # o O 1 0 w ; : : : - O O o o . + x w.K.7.$.$.F N             ",
"      C.C.C.V.4.T Z n k 6 o o @ - : ; % : : : % ; - O % ; : q q , : : ; - - O O 0 w w q , w q : - : - - - # X O 0 w e 1 ; : : ; % o o o o . 8 D 9.6.&.$.U V l           ",
"      7.<.4.7.w.<.E V x 7 o o @ : 0 : - : : ; - ; - # # ; : q q q : : - ; - % o 0 w w q , w w : ; : - ; - % X o 0 w e 0 : : : ; - O o o o . & N / 2.d.$.U N l           ",
"      <.#.#.#.#.$.+.T c 7 o o @ : q : : 0 0 : - : - # % ; 0 q q q : : ; : ; - O q w w q : w w : ; : - ; - % o O 0 w e w : 1 : : - % O o o o + v U 9.d._ D N j           ",
"      =.#.#.#.E / T F x 6 + o % : q 0 q q q : ; : % # - ; : w w 0 ; : : : ; @ O 0 w w w : e w < : : ; ; - % o o 0 w e w ; : , : - % % % o o + c E r.<.U F N j u         ",
"      #.#.#.#.I V M M j 6 X @ % : w w w q q : : : - % # ; : w w 0 : 0 q : ; - O 0 w w 0 : e w 1 : : - : ; % o o 0 0 e w : 1 < : ; % % - o o X l E <.| D F n j 9         ",
"      #.#.#. .U V B B l 6 X o % 0 q w w w q : : ; % % % ; 0 w w q : 0 q : ; % O 0 w 0 ; 1 e w : : ; ; : ; % o O q w e w : 0 0 : ; - % % O o X k T #.] F D c s u         ",
"      #.] #.| ] _ T D c 3 o o - 0 w w w q w 0 : - % O @ ; : w e 0 : 0 q : ; - O 1 w w 1 e e w : : : ; : ; % o O 0 0 e w : 1 w : ; - - - @ o X k / #./ F Z x i u         ",
"      D V U _ _ _ U D l 3 . o % : w w e w w < : - % O O - 0 w e 0 : q q : ; % % 0 w w w e e w : : : - : : @ o O q q q q : 0 q : ; - - - % o X s E E I Z n j u u         ",
"      v x x M N V N x u * o o - 0 w w w w e : : - - o O : 0 w e 0 : 0 w : ; % @ 0 w w t t e w 0 ; : ; ; ; - o O 0 q q : ; 0 w : : - ; % % o X y H D C n l a u           ",
"      D c j s a u 9 6 2 + . o - q w w w w w < : - % O o ; 0 q w 0 ; 0 q : ; % @ 0 w w e e e w : ; : : ; : - o O q w 0 - ; 0 0 : ; ; ; % % o o & n B x j a 9 u           ",
"    K.K._ Z v x l j i 4 X o o - w w q w w w < 1 - % O O ; 0 q q : : q q : - @ @ 0 0 w e e e q : ; : ; : : ; O O q q q : : w q 0 : : ; - % o + 3 V O.| U N c x x         ",
"  2.2.n.K.K.2.Z N M l 9 & X o - w w q q w w 1 : ; - @ o : 0 q q : 0 w 0 : - % @ 0 w w e e w 0 : ; : ; ; : ; O O q w q 0 0 w q , : : - % @ o + k $.s.K.n.| F M x         ",
"  2.$.<.r.v.r.F F M x u * X o - w w w 0 0 0 < < - - @ @ : 0 q q e e w : ; - % @ 0 0 w w w 0 0 - ; : ; : : ; O @ q w q q e e q , : : : % - o @ n $.| / U Z D n l         ",
"  &.$.$.=.=.+.F F n x s * X # ; w e w 0 : : 0 , ; % o @ : 0 w q e e w : ; % o o 0 w w e 0 , ; - : : ; ; : ; o O 0 e w q e w q : : : : - - @ + V &.O.U F U I M l         ",
"  &.$.&.=.=._ F F V v a & X % : w w w w 0 1 0 1 - % @ o ; q w w e w 0 : - % o @ 0 0 w e w 0 , , : : ; : : ; O O q e q w e e w : : : : - % @ - Z &.t.h.s.=./ B x         ",
"  <.#.#.#.=.#.I F F M 9 & + # < w w e q q q q : ; # O O : 0 e q w w : : - % o O 0 q w e w 0 w w ; : ; ; : ; O % q e w q w w q : : : : ; - o > H +.K.K.8.2._ Z c         ",
"  <.#.<.s.n.N.7.=.T M 6 & X % < q q w q q q q : - - o O : q e q 0 0 : ; - % O O 0 q e e w 0 q q ; : : : : ; O O q e w q e w w 0 : ; : ; - O 3 H :.K.:.:.$.R D c         ",
"    | #.<.7.7.9.=.E l 2 & $ % < w 0 w w q q q : ; O O O : q e q w 0 : : ; - O O 0 q e e w 0 w 0 ; : ; : ; - o - q e w q w w q : : ; : : - # 5 H :.K.:.:.U H D n         ",
"      D U / | <.=.D 9 2 + X - < w w e q q q 0 : ; - o # : q e w w 0 < : : - O O 0 w e e w 0 w 0 : 0 : : ; - o - q e e q w q w : : : ; : - O 5 D $.8.:._ F F D n         ",
"      c j i a c n u 2 & o o - 0 w w e 0 q w q : ; # O - : w t w w : 0 : : - o O q q w t w 0 q 0 q q 0 ; : - o - q e e q q q 0 ; : ; ; : - % 3 H +.8.$.( F F D x j       ",
"      n c d 9 4 2 2 & + . o - ; q w e q q q 0 : - % o ; : w e q ; - 0 : : % O O 0 w e e w 0 w w q q 0 : : ; @ - q e e q q 0 : ; 0 ; ; : - O > Z +.$.$.( D D M j u       ",
"      D c x i 9 7 2 2 & X o - : q w e q q w 0 : - % O ; : w e q : : 0 : : % o O q w w e w 0 w 0 q w 0 : : ; O - q e e w q q : 0 0 : ; : ; O 2 Z $.$.$.U Z n l a u       ",
"      F n x j s a i 2 2 & o - : q w e 0 0 q 0 : ; # o : : w e q w 0 q : : % o @ q w w e w 0 w w w w 0 ; : : O ; q e e w q q q w 0 : - : ; % + N O.$.| D M l j 9 u       ",
"      | Z n x z x c j 7 2 $ - , q w w 0 0 w 0 : - % o ; : e e w q q q : : % O O 0 q w e w 0 w w w w 0 : : - @ - q w e e w q q e q : - : ; % + c _ | I Z l s 9 9 u       ",
"        #.F Z B V D c j 4 & - , q w w 0 0 q , : ; @ o : , w e w w q q : : % o O 0 q w e w : w w q w 0 ; : ; O ; q e e q q q q e q : - : : % o z I K F c j a j a a       ",
"        &.] I D U B x k 7 * ; < w q w 0 0 0 : : - O @ : , w w q q q q 0 ; o o O 0 q w q q : q w w q 0 - : - o - q w e w q q w e q 1 - : < - o 8 B V M x x x x c         ",
"      <.#.#.] U D n x j 6 * ; 0 w w : : 0 0 : - % o O : 0 w w w q q 0 ; ; o o O 0 w w q q : w w q q : : : @ o - 0 e e e w q w e 1 < - : : % o + s M M M v x x c x       ",
"    <.$.$.$.#.#.D n x j 6 * : q w q : : 0 : - % % o O : 0 w w w q w q 0 ; o o O 0 w e q : : q w q 0 ; : ; % o - q w e w w q q w q < - : : ; + + u F _ *.Q B c c j       ",
"    &.&.$.&.#.O.D n x j 4 - 0 q w q : : : ; - % o o % : 0 w w w q w w q : O o % 0 w e q , 0 q q : ; - : : % @ % q w w q w q w e q 1 ; : : - o + u _ *.*.=._ F N k u     ",
"    <.$.&.$.&./ D n c j 4 % 0 q w w 0 q : ; - % O o % : q w w w q w w 0 : o o O 0 w t e q 0 0 q : : : : ; % @ @ q q w w w q q e w q : : : % o + 9 _ =.*.=.*.+.F M i     ",
"    2.$.$.&.$.O.D c x d 3 - q q e q 0 0 0 : ; % % o - : 0 q q w 0 w q q : O o % 0 q e e q 0 q 0 - - : : ; % @ % q q q q q q q e q 1 < : : % % + 8 _ =.=.=.=.+._ V i     ",
"    C.4.#.#.#.#.E N x j 2 * q w w q 0 q 0 : : - O o - 0 q q q w 0 w w 0 ; O O # q q e w q 0 q - % - : : ; % o % 0 q q q q 0 : w w w : : ; - # + 7 E #.#.#.#.#.] D s u   ",
"    F.t.#.#.#.=.| D x i 2 - 0 w w q 0 q 0 : - % % o - 0 q q q q 0 w w 0 ; # o - q q e e q 0 q : ; ; : ; % O o % q q q q q : ; w w e < : : % o + 7 U #.#.#.#.+.U D k i   ",
"    #. .] ] | ] D n j 9 * - q w w q 0 q , : - - O o - 0 q q 0 ; 0 w w 0 : O o - q q e e q : q 0 0 : : ; % o o - q q q q q : ; q w 0 0 : : - % + 7 D #.#.#.#.| F D l u   ",
"    _ E / _ _ F N n k 9 $ ; w w q w : q 0 : : % O o ; 0 q w 0 0 q w w 0 ; o o - q q e e q : 0 w : : : : % o o O 0 w q q ; - - 0 w w 0 : : % O X 4 B | #.<.7.$./ D k 9   ",
"      &.#.<.#.T D D c 9 $ ; w w w q 0 q 0 : ; - O o ; 0 q q q q q e q 0 - O o ; q 0 e e 0 ; 0 w 0 : : ; @ o o - q w q 0 ; ; ; : w 0 w : : - o X 2 M ] 7.n.d.=.T V j u   ",
"      <.s.s._ F F V x 7 @ ; w w e 0 : q 0 : : % % O ; 0 w w w q w w q : % o o : q : w e q ; : w 0 ; ; ; - o O % q e q q q 0 : : w w 0 : : % o X * l Z #.$.| F B l u i   ",
"      #.<.#.U D D n l 3 o : w w e 0 q q 0 : : - O o ; 0 w w w q w e q 0 % o o : 0 , w w q ; : w 0 ; : ; % O o @ 0 w w q w 0 : : w 0 w : : % @ X + s B B M c k j a       ",
"        F F Z D B x a & o : q w e 0 w q q : 0 - % O : 0 w w w q w w 0 0 % o o 0 0 : q w 0 - 0 e q ; ; - - O o - q e w q q 0 : : w w w 1 : % o X * n _ 7.s.2._ E / |     ",
"        V N c l k a 4 & % 1 w w w w e w w : : - # O : 0 w w w q w 0 q : % o O : 0 : : : ; - q e q ; : : - O o % q e w q w q - : w w w 0 : % @ X * n | n.K.n.<.+.I M c   ",
"    b.E D Z Z V V N j 2 * 0 w e w 0 w 0 q : : - O # : q w w w w 0 0 : ; O o O : 0 : : ; ; , q w q - ; : - % o % 0 e q 0 w q : : w q q 0 : % o X * M <.n.N.s./ D n l i   ",
"    t._ E U E T F F x 4 - w w w w q 0 0 : : : % o # : 0 w w w q 0 : ; - % o # : : : : : : 0 q 0 , ; : : ; @ o % q w w 0 q q : : e q q 0 : @ o X = B <.N.w.] F Z c k 4   ",
"  F.7.=.$.$.$.$.F A x 4 - 0 q w w q 0 w : ; % O o % : 0 w w w q w w 0 : % o # : 0 : : : 0 0 q : : ; ; : : % o % 0 w 0 0 w q : : w q 0 0 : @ o X 2 B #.&.| U I V c k 2   ",
"  C.<.#.$.t.s.O.F A x 2 - < w e q 0 q q , : ; % o % : 0 e w w q w e w : % O O ; : : : , 0 w 0 w q ; : : : O o - 0 q 0 : w w 0 : q : 0 0 : @ o o 3 B | O.] $._ D n l 7   ",
"  C.<.#./ B N n Z Z l 2 - < q e w q 0 w q : : % o - : 0 w w 0 q w e w : ; O O - : : : 0 q w w w 0 ; ; : : @ o % 0 q 0 : q w 0 : q : : : - @ o o 3 B | &.s.4.| I B l 9   ",
"  F.s.<.#./ D D I Z d * - < w w w q q e w : : % O - : w w w 0 w w e w 0 : % O - : : ; 0 q w q w 0 : : : : - o - 0 q : : w w q : q 0 : : : O o o * M ` &.2.6.+.T D x u   ",
"  K.C.n.s.6.$./ F M i $ - < w t w 0 q q 0 0 : - O % : q w q 0 q w e q < : % O - ; : - 0 q 0 q w 0 : : : : # o - 0 0 : : w w q 0 q 0 : : : O o . & x / $.t.s.<.#.D x a   ",
"    <.E E V n x l a 4 o % : 0 e e q w 1 : : ; % O - : q w q : q e e q 0 : % @ % ; : ; 0 0 : w w q 0 : : : - o ; : : ; 0 w w q q w 0 : : : % o o & s I / $.<.$.<.D x     ",
"    N n x x j 9 2 * + X % : 1 e e 0 w 1 : ; - - O - 0 q w w : q w w 0 : : % O - ; : : : : : w w w q : : ; % O - : ; ; : w w q 0 q 0 : : : - @ o & 9 B B N B B N j 9     ",
"    / U D N c k u 2 & X % : : w w < e < : - % % O ; : q q q : q w w q 0 ; # O - ; : : : : : w w w q : : ; - O - : : : : w w q : : : : : - - % o & 9 B n j u 7 9 9 a 9   ",
"  C.N.n.7./ D n l 9 * + % ; < w 0 0 e 1 : : - % O ; : q q q ; q w w q ; ; % O - ; - : : : ; q w w 0 : ; - - o # ; ; : : q q q ; - : : : - - - o & a D U $.4.| U Z n u 4 ",
"  C.s.7.<./ D D N j 2 + % : 1 w w w w : : : % - # ; : w q : ; q w q : ; : % O % # - : : : ; q q w : ; - - # o O # ; : : q q q : % ; : : % - - O & s D F r.K.7.<._ Z j 2 ",
"C.5.<.] F V F F D l 4 + ; 1 0 w 0 0 : - - ; - % O ; : w q ; : 0 w 0 ; - ; % O % - - : : ; ; 0 q w : : - % O O o # ; : : q q q : % - : : - % - O & i V E 7.s.$.$.O.D x 4 ",
"h.&.#.#.#.+.] +.D x 4 @ ; : 0 w w e 0 : - - - % O ; 0 e 0 : : : w w - - : # O O % - : : ; O 0 q w : : - - O o o O - ; : 0 ; q ; % O - ; % % - o + 9 B / 4.2.$.#.R D x 7 ",
"7.#.#.#.#.<.7.+.Z l 4 + : : w w w e q < ; % % % o ; 0 w q : : : w q - - : % O O % % : ; % O ; q w : ; - % o O o O % - ; : ; : ; % @ % - % % % o + 9 N _ $.+.E F F Z c 9 ",
"<.#.#.<.h.n.7.Y B l 2 % < 0 w w q w < : - # - # O ; 0 w q : ; ; q : % ; ; # O O % - - - % O ; q 0 : ; % # o o o o O % ; : ; : ; - o # ; @ @ @ o + 6 n R $.| ( U U V x 9 ",
"5.#.#.s.n.<./ D n k 3 # : 0 0 0 ; : ; % O # - # o - 0 q 0 : - ; q ; * ; ; # O % % # # - O O ; : : : - - o o o o o O # - - : : ; % o - O o o @ % . 2 x H / $.$.$.R N l 9 ",
"7.=.#.5.<.] I B c j 2 o % ; w 0 % o o o O - - * * > : q : - O ; : ; ; : - % > 7 p y > ; # O # ; : : - % O % * > > * % # % % ; ; # O O O & > 6 p 2 + l D H [ O.O.D c j   ",
"<.=.=.] #.] I N x j = . = v C v p y 8 y y p p f g h l h f y 5 q 1 5 5 5 y p l N S S Z M z f p y y y y y u p g l b g y 4 4 > > 5 > 3 6 7 8 i v Z C u u n Z V Z N c j 9   ",
"T ]  .V Z E I M l u * 4 M S ~ E E ~ K S K ~ ~ ~ ~ T E E ` U H Z C V B V C S ` K K ` ~ ~ ~ ` E I S F Z I F I I ~ ~ F V M b c z z z z z v M Z I A H C s a x c c x j u     ",
"  v c s c M x s 9 4 * k v v b M N N N N N m M M M n b b b b n b n b b n b v v v v b n b N N C C C C Z C C C C N C C N C N M M M b M n b b b v v v v 8 2 7 a j a         ",
"          s           v b v b b b m m                       d k z z c x x c v x z x x v z z v x z v c c c c c c c c c c c v v v v x z l k k z z v v k                   ",
"                                                                                                    l                                                                   ",
"                                                                                                                                                                        ",
"                                                                                                                                                                        "
};
