/* XPM */
static char *d8b47f631b6b437be96464f10255208aA9po6HF6aLnCN8Da[] = {
/* columns rows colors chars-per-pixel */
"84 90 146 2 ",
"   c None",
".  c #211E17",
"X  c #241F1A",
"o  c #26211B",
"O  c #29251D",
"+  c #2C281F",
"@  c #2D2721",
"#  c #2E2A21",
"$  c #332E24",
"%  c #363126",
"&  c #383227",
"*  c #373229",
"=  c #3B352A",
"-  c #3E392C",
";  c #3B3730",
":  c #3E3A34",
">  c #423C2E",
",  c #443E31",
"<  c #4A3F31",
"1  c #413E39",
"2  c #474132",
"3  c #4B4435",
"4  c #4E4837",
"5  c #44413E",
"6  c #4E4739",
"7  c #4F4838",
"8  c #534C3B",
"9  c #57503E",
"0  c #59513F",
"q  c #474440",
"w  c #494642",
"e  c #4D4A45",
"r  c #4F4C48",
"t  c #514E4A",
"y  c #5C5542",
"u  c #5F5844",
"i  c #55524D",
"p  c #58544F",
"a  c #575450",
"s  c #595652",
"d  c #5D5A55",
"f  c #5F5C58",
"g  c #605743",
"h  c #625A46",
"j  c #665E49",
"k  c #685F4A",
"l  c #625E59",
"z  c #6B634D",
"x  c #6F6650",
"c  c #63605B",
"v  c #63605A",
"b  c #64605A",
"n  c #64605B",
"m  c #65615B",
"M  c #64605C",
"N  c #64615C",
"B  c #65615C",
"V  c #64605D",
"C  c #65615D",
"Z  c #67635D",
"A  c #66625E",
"S  c #67635E",
"D  c #67635F",
"F  c #68645F",
"G  c #69655F",
"H  c #706750",
"J  c #746B53",
"K  c #786F57",
"L  c #797057",
"P  c #7D735A",
"I  c #686460",
"U  c #696460",
"Y  c #696560",
"T  c #696561",
"R  c #6A6660",
"E  c #6B6762",
"W  c #6C6862",
"Q  c #6D6863",
"!  c #6D6964",
"~  c #6E6964",
"^  c #6E6A64",
"/  c #6F6A65",
"(  c #6F6B66",
")  c #716C66",
"_  c #716D67",
"`  c #726E68",
"'  c #736E68",
"]  c #736F68",
"[  c #736E69",
"{  c #74706A",
"}  c #75706A",
"|  c #76716B",
" . c #76726B",
".. c #77726C",
"X. c #77726D",
"o. c #78736D",
"O. c #78746D",
"+. c #79746E",
"@. c #7B7670",
"#. c #7B7770",
"$. c #7C7770",
"%. c #7D7871",
"&. c #7C7870",
"*. c #7E7A71",
"=. c #7D7872",
"-. c #7D7972",
";. c #7E7972",
":. c #7E7973",
">. c #7E7A72",
",. c #7F7A73",
"<. c #7F7B73",
"1. c #7E7A73",
"2. c #7F7A74",
"3. c #81765D",
"4. c #83795E",
"5. c #867B60",
"6. c #897E62",
"7. c #807B74",
"8. c #807B75",
"9. c #817C75",
"0. c #817C74",
"q. c #827D75",
"w. c #817C76",
"e. c #827D76",
"r. c #837E77",
"t. c #837F77",
"y. c #847E77",
"u. c #847F78",
"i. c #8D8165",
"p. c #908467",
"a. c #928669",
"s. c #95896B",
"d. c #858078",
"f. c #858079",
"g. c #868079",
"h. c #868179",
"j. c #87817A",
"k. c #87827B",
"l. c #88837B",
"z. c #88837C",
"x. c #89847D",
"c. c #8A857D",
"v. c #8A847D",
"b. c #8C867F",
"n. c #8C877F",
"m. c #8F8A82",
/* pixels */
"          h.h.h.u.u.u.u.u.u.u.u.y.8.7.8.0.q.d.h.l.c.m.c.u.h.m.b.b.v.h.u.y.u.c.q.=.=.=.*.d.d.d.q.h.l.l.h.d.y.y.q.h.h.h.q.e.u.h.k.l.                                      ",
"      ! O.=.$.#.O.{ [ ) ! ! [ ..o.$.=.=.7.=.=.O.{ O.{ G G $.=.8.q.8.8.8.7.=.=.$.#.&.=.=.q.*.0.=.=.#.&.=.=.=.q.q.q.q.q.<.e.e.e.e.=.) { 8.u.u.q.=.q.=.=.q.q.8.#.          ",
"      l c C C C C l l l s e i d l l l D D c d d l d s s d l l l D U U C C C C C C G U U C m c l d s i i l d l l C U G U U Q ! U l l G [ o.[ E m m U ) ( U d d l         ",
"      t i p s a s C C l d t i d l s l l l l l l l l l l l C C l l C l l l C C C C C C V l f l c l d t e i i a d V C C l l l l l C l l C C l l t i l C l s i i s         ",
"      q w e t i t a f s t t t i a a a t t i p a s s d d f d f l f l l V c C l C c C C C C C m d i i t t t i s l c m C d a s l C m C C D d i t t s c V C c i r i         ",
"        5 5 5 5 5 q q q w q 5 w w w w q w w w w e w w e i i i t e e r t i t i p s s d d d s p i t t r w q t a s s d f f s d d l D m l l s a t i l m l d i q q           ",
"            = * = = = ; ; ; ; ; ; ; ; ; : : : 1 1 1 1 1 5 w e e w 1 : 1 : 1 : 1 1 5 5 5 5 5 2 5 5 q 1 q 1 q w w w w e w r p i d l m l l d t w 1 q w q 5 1 5             ",
"            7 6 2 - $ % % $ $ $ & & - - = - - - = = - - - > > - - = * * = & = = = = * * * = & & = ; ; ; : : : : 1 : : : 5 5 5 w w w e 5 1 ; ; , - * * * $               ",
"              h y r < > & % = > > > , < < < 2 3 3 3 3 3 3 3 3 8 8 8 , , 3 6 6 4 3 < < > 2 2 < < 2 > & > > < 3 6 6 , - > < < < , = $ $ $ $ , y 8 8 2 = % %               ",
"              H g h h 3 > $ = > 7 7 7 8 8 y y g g g g y 0 7 4 4 2 2 , , 3 3 3 6 0 0 8 9 0 8 4 3 2 > > 3 4 6 8 0 8 8 7 8 8 y 8 6 3 % & & $ 4 H j u 8 2 - %               ",
"              P k j j 8 3 % > > 3 3 7 8 y y g g y 0 8 7 4 6 8 8 8 7 3 4 6 4 4 8 9 9 0 8 8 4 4 8 8 0 g g 0 6 3 6 8 8 0 8 8 8 8 8 3 3 8 3 % 8 3.x z y 8 2                 ",
"              4.H J z 8 4 - < 3 3 3 7 3 2 2 3 3 < > > < 8 8 0 0 0 8 7 4 3 3 3 3 2 > < > > > 3 4 8 8 7 7 8 7 8 4 3 8 8 y u y y 6 8 0 8 4 > 8 5.J z z u 4                 ",
"              6.K L H 0 7 > = - = , 4 4 4 , , < , , $ & - > > - > = & & & & $ $ $ $ # $ # $ & $ $ $ $ $ $ & > , 3 8 8 8 2 6 6 8 0 y 8 3 = 8 4.K z H h 3                 ",
"              3.H P J h 8 > = > , , , 3 4 4 , > > & $ $ $ # # # + + + O O O o o o . o o o o . o o o + + O # @ $ & = > > , , , 3 4 4 4 3 % 8 4.J z z y 3                 ",
"              3.H 4.H h 8 2 3 0 u 6 8 y g g 4 4 y 3 , 3 7 2 2 , , 3 < 4 3 > > > # & > > > > > > < 2 2 3 8 2 4 8 4 , 2 2 2 , , 3 2 2 2 2 2 h P J L z y 2                 ",
"              3.3.i.H h 8 3 7 j k 8 8 j j k y 7 h 0 0 8 y 8 8 y 3 0 8 y 0 3 < 3 > z 8 4 2 2 0 0 4 8 y 8 g 8 0 h 8 8 3 2 2 3 2 , 2 2 2 2 > J 3.P P z 0 3                 ",
"              i.5.i.z h 8 3 4 j z 0 0 z h z u 4 h u j y j u 8 j 9 0 g g h 9 2 2 2 P u y 8 3 g j y 0 z 0 z 9 h z 0 g 4 2 3 3 3 3 2 2 2 2 - L i.L P x y 2                 ",
"              s.i.i.z h 8 2 4 z z u y x z z h 8 k u j y z h y j 0 u h h z 0 3 3 6 P h k y 7 h z g h z z J 0 H x g j 8 2 3 9 8 2 2 2 2 2 > P i.P 5.x y 2                 ",
"              s.6.P h z 8 2 8 z z z y K J z z 0 z h z y x z y j h h h h z 0 3 3 8 P h J u 7 z z h h J J L g J H h z 0 3 4 0 8 3 2 2 2 2 2 P i.L 4.x 9 2                 ",
"              s.4.z g j 8 2 8 j z h g P P x z 0 x h z u H z u j h h z h z u 7 3 8 3.g J j 8 H x h j L 3.3.h L J h z h 3 4 g 0 3 2 3 2 > > i.i.H 5.H 7 2                 ",
"              s.5.j z h 7 2 u g z z h 3.4.K h h J H J u H z u h z h z h z 0 7 3 y P u K z 8 x H z h 3.3.3.j 3.J h z h 3 4 h g 4 2 7 3 2 2 5.P H P z 7 3                 ",
"              s.i.J P z 0 3 j g x h z 3.5.P h z L P J h J H g h z z z h z 0 8 7 y K u P z 8 H J h z 3.3.3.z 3.K z z h 3 3 z h 3 3 8 3 2 2 P P K K z 7 2                 ",
"              s.i.H J z y 3 z g x z z P i.P h z P 5.J j J x h h z z h z j 0 e 8 y J y K z 8 H J H z 3.3.4.x 4.L z h h 3 3 z h 4 3 8 3 2 - P P 4.P H 9 2                 ",
"              a.i.H J z y 6 H j z z z P i.3.h x P P K z J x h g z z z h h 0 g y y H y K z y J K L z L 4.4.H i.L z z g 3 3 j h 7 3 y 7 2 - K 5.4.P x 9 2                 ",
"              a.6.H J z y 4 H z z J H 3.i.3.j z P P K H J J h h z z z h z z z 0 u z 0 L z 0 J P L x J i.4.J i.P z h h 3 3 h h 4 7 y 8 2 , J i.4.P z 0 2                 ",
"              a.i.J H h 0 4 H z z L J 3.6.3.h z P P J J J H j z J J z h z z z 0 u z y P z 0 J P P z x i.4.L i.L z z h 3 4 z z 8 y g 8 2 - P i.5.4.z 7 2                 ",
"              a.i.J L z y 8 L z z L L P 6.4.g z P P J J K H z z K J z z z z z 8 g g g 3.H 0 J 4.P J P a.4.L i.P z J h 3 4 z h 4 g z 8 3 , K 5.i.P z 4 2                 ",
"              a.5.H J z y 8 P z z J P P i.3.j z J P x P P x x x K J z 0 H z z 9 h h z 4.H y J 5.4.J i.s.4.L p.L z J z 2 8 z z 8 z H 8 4 , P P 5.P h 3 3                 ",
"              s.3.H x z 0 8 P z z J P P i.3.j z K P z L P J J H P H z 0 J H z 9 h z J P J y L 4.4.J 4.a.4.P i.P z L z 3 0 J h 8 z J 0 7 2 4.J J P g 4 2                 ",
"              s.P H z j 0 9 P z H J P P i.K g z J J z P P J K J L z h z L J 0 0 h x L 3.x 0 L 4.4.J i.i.P P p.P z L z 4 h J h 4 J J 8 8 2 P L J 4.h 8 2                 ",
"              s.3.H x z 0 8 L z J J 3.P 3.h z z H P J J P J P P P H 0 z P J z 9 h L 3.4.J 0 K 4.P J 4.i.P P p.P z P J 8 z J z 0 L K 8 7 - 4.K P 4.z 0 2                 ",
"              s.4.J J z y 7 L z J J P 3.P h P z x 6.J K K P P P i.z 0 z P L 0 0 h L i.P J 0 K i.P K 4.i.P L p.P z L J 9 0 J z z L L 0 7 - 4.P 5.4.z u 3                 ",
"              s.4.P P j y 3 z z L L P 3.3.4.4.z H i.J K J P P 3.4.z 8 z L J 9 9 h P i.P J y L 5.P J 5.5.P P i.P z P J 8 j J z z L P y 7 - 4.P i.P z u 4                 ",
"              s.4.4.P z u 2 y u P L L 4.P i.i.z z i.J J J 3.3.3.i.0 4 z L J 8 0 h P 5.5.J 8 K 5.L K 5.5.P P i.P z P J 8 g J x z P P y 3 = 4.P P K x z 3                 ",
"              s.4.i.P j g 2 y H 3.K J 4.3.6.6.h z i.J K J 4.3.3.4.0 0 H P K 0 u g P 5.5.H 8 H P P L 5.5.P L i.L z P z 8 h J H z P P u 3 & P 4.P P P h 2                 ",
"              a.5.6.P j u , z 5.3.J H 4.3.4.4.y z i.J J J P P P i.0 z P i.L u u u P 5.5.J y J P L P 5.5.L L i.L z K j 8 h H L x P K u 2 % K 5.P P P u 2                 ",
"              a.5.5.P j g 2 z i.4.J z 4.3.4.J y J i.J K J 3.P L 3.u z 3.i.K u u u L 5.5.H 0 J P L P 4.4.P L 6.K z J u 0 h L P H 5.J u 2 % J i.P P K 8 2                 ",
"              i.P P J j h , h 5.3.J z 3.4.3.K z H i.J J J P P J P 0 z 3.4.L z h u L 5.5.H 0 H P K L 3.4.P L 6.K z j 8 0 h P 4.z P H u 3 % L 5.P K 0 3 3                 ",
"              6.L P z j h , h 5.4.H h 3.4.3.P z J i.J K J L 3.J P 0 J 4.i.L z 0 u L 4.5.H 0 H 4.K P ] 4.3.L 4.K z u 4 4 h 4.4.z L x u 3 & P P P x 0 3 2                 ",
"              4.H P x z z , u P 4.z h K 4.4.L z H 4.J K K L P J J 0 L P i.L z z y P 4.P z 9 x 4.J P 3.4.L L 4.P z x 8 4 g 4.5.z L x u 2 = P P J z 0 8 2                 ",
"              4.J 3.z H z 2 y P 4.z h K 5.4.P z H P z P J P 3.H L J 3.P i.P z z 8 L P z y 4 z 5.L L P P L K P P x P u 7 u 5.4.H K z 9 2 = P L L j u 0 3                 ",
"              6.J P z J z 2 y 3.5.z h K 6.4.3.z z P H P K L 3.H P 4.4.J L 4.z z 8 K 3.K z 9 z 5.L L P K H J P P x J y 7 y 5.4.J L z 3 > > P L z g z u 3                 ",
"              i.L 3.J J z 3 8 P 6.z h K 4.6.3.J z P J P J L 3.H P P L z J 4.J h 4 L 4.L P z z 5.L L K u y z P P H P 8 7 u 4.4.K P z 7 > 2 P L y z z z 2                 ",
"              i.P 3.P J H 4 8 3.6.z h L 6.4.3.J z P 3.P H P 3.H 3.L x z z i.H h 4 P 4.P P x z 4.L L K z z H P P H J 8 8 u 4.P P P z y > 2 P L H H H z 3                 ",
"              i.P P P L H 8 8 3.6.k h K 6.4.4.K z P 3.P H P 3.z P P x z z 4.H 0 3 P 4.P P H z 4.L L L x H H P P J K 9 y g 4.P P 4.z y 2 3 4.P J J P z 3                 ",
"              p.P P P J H 8 < 3.6.z k K 4.3.4.J z P 3.P P 5.3.k P P L z z i.H h 3 3.4.L 4.J z 5.L L L x P H L P J H 8 h h P J P 5.x u 3 3 4.P L 4.P h 3                 ",
"              i.P P P J K 8 > K 6.H k K 5.3.5.K H P P P 4.a.4.j P K L x z 4.z 0 3 3.4.L P J z 4.K L J x P H L P J z 8 h z P J P 5.H u 3 3 P 4.P 5.4.g 3                 ",
"              i.P 3.P J J 8 = P 6.k z P 5.3.5.K K P P K 4.a.3.h L K P z z i.z 0 4 4.4.L P P z 4.K L J z P H L L H J h z h 4.J 4.5.z y 3 3 5.i.4.5.P y 2                 ",
"              6.4.4.H J J 3 = z K j K 3.4.4.6.K K L 3.K 4.p.3.k K J 3.k k 4.z y 6 3.3.3.3.K k 5.J L J z 4.H P H z P z z u 5.K P 5.z 8 2 3 i.i.P i.L 9 2                 ",
"              i.5.3.H K L 8 % h z H P K 4.3.5.K J P 3.K 3.6.3.z L H 3.k h 3.H 0 6 4.3.3.' H k 3.K J J z 5.J P H z P z h y 5.P P P z y 2 3 p.i.P 5.J 8 2                 ",
"              i.i.P P K J 3 - P K 3.3.K 5.4.6.K K K 3.K P P J k 3.J K h j 3.H y 6 4.3.3.3.k k 5.J K H z 5.J P J z P x u y 5.P P P z u 3 6 p.i.P P H 8 2                 ",
"              s.6.H K K g > > P 3.3.3.K 4.3.4.J K K 3.K 3.K g k 3.J k y k J H y 7 4.4.4.3.k k 3.J K H j 5.L P J H P z y 8 5.P P P z u 3 3 5.P P P z 7 3                 ",
"              s.i.z J H 8 = 2 P 3.3.3.K 4.} K h K 3.3.K 4.4.J z 3.J z z J K H y 8 4.4.4.3.k j 5.K J J k 5.K P H H 5.z y 8 4.P P H y z 3 3 4.P L P z 8 2                 ",
"              a.5.x P P z - 2 P 3.6.3.K 4.L y y P 3.3.K 5.p.4.J 3.K z H K K H g 8 4.4.4.5.k h 5.J J K h 5.J P J J 5.z y 0 P P L H z z 3 2 P P L 4.x 0 2                 ",
"                5.P P P z - - J 3.4.4.K 3.3.j g 3.P 3.K 6.a.p.H 3.K J 3.3.K H y 8 3.4.6.3.k j 6.K J P k 6.K P H P 6.x y 8 P P P K K z 3 2 5.K L 5.H y 2                 ",
"                4.5.P L H - & H 4.6.4.K K 3.H H 3.3.3.K 5.a.p.H 3.J 6 < 0 J J g 0 3.3.3.< > y 6.J J 5.k 5.P K x P 5.H u 8 J P L P P z 3 , 5.K P i.H y 2                 ",
"                4.5.4.J y = & J 3.5.5.K L 5.J K 3.3.3.K 5.s.6.J J 3 X X O 6 J y y 3.H * X X @ J K J 5.k 5.K K J P 6.H y 8 j P P 4.P z 3 > i.P P 4.H 0 3                 ",
"                4.5.P J 8 & = J 5.5.5.K K 5.J J 3.K 3.K 5.s.6.K g $ O X X $ h y y 3.6 X o o X < J H 5.k 5.P J P P 3.z y 8 8 P J 4.P z 4 - 5.P P 3.k 8 3                 ",
"                4.P P z y = = u K 5.5.P L 5.J J 5.P 3.J 5.6.6.J 3 o X X X O y y g K > X o X X > x J 5.z 5.K K P P J z 8 3 8 P J 5.J z 7 - 4.L P K y 2 4                 ",
"                4.J L H 0 % % y P 5.5.K P 5.J J 5.K P J 5.s.5.h 6 $ X O X @ y y g K 3 O o @ o 1 x H 5.x P K J P P H u 4 4 8 K J 5.H h 7 = P L P J k 4 8                 ",
"                4.J P J u = % z 3.6.5.J 3.5.J J 3.P P J P 6.K 8 k 8 $ O @ < k r g L z > @ @ $ u J J 5.x P J J P P z y 8 8 4 J x 5.z h 4 & P K L P H 8 4                 ",
"                P P P J u % % z 5.6.5.K P 5.J K 3.K 3.J 3.3.P z J J k g h k k 8 0 L 4.z h y j H J H 5.z P J x P 3.z g g y 2 H x 5.z j 4 % L H K L K 8 2                 ",
"                i.i.P J u % - z 5.6.5.J P 5.k K 3.K 5.H 3.P P J J 5.J H 3.H j 7 0 3.5.x 5.5.P x k H 3.z P K z L 3.h h j u 3 H H 5.j j 4 $ J J H K L 8 2                 ",
"                i.i.L J 0 % - z 5.5.5.J P J y P 3.5.5.H K 3.P J 3.5.z k k k 8 < r P 5.k 5.3.P h y H P z P J y J 5.h j h u 2 z J 4.y z 8 $ H L L L K 7 3                 ",
"                4.4.J J y % > z L 4.J L P 0 y 4.P i.i.z H P P i.i.i.z z 0 y 4 2 0 4.4.z 5.4.P j y H J z 4.J y K 4.g j g h 3 h L 3.0 z 0 % x L 4.P z 8 2                 ",
"                J 4.x J y # 2 z L L J P P H L i.P P i.z H P P P s.i.x z z 0 u 3 9 4.P u 5.5.P L j J z z P J 8 P 4.h h 0 g 4 h L z 9 H 9 + z L i.H 0 3 3                 ",
"                H 4.H J y # 4 z L P P 4.4.L 4.i.P P p.z H P L L a.i.x z z x z 3 0 5.L h 5.i.P P z J x z 5.H 8 P 4.h z 0 0 3 z P 0 0 J 9 + z P 4.J u 4 2                 ",
"                x P H K y # 4 z H P P 4.P L P 4.i.P i.x z P P P i.i.J h h K z 3 0 5.J z 5.i.P P 4.P P H P H u P 4.g j 0 9 4 H 3.z z K 9 + z P 4.J g 4 3                 ",
"                x J x K y + 2 z x P P P 4.L P 4.4.3.i.z h P P P a.i.J z u J z 8 0 P J z 5.i.P 5.p.P 4.L 4.x u P 5.u j 0 8 4 J 4.J P J 9 + z P P J h 4 8                 ",
"                H H x K 0 # 3 z x P 4.P P J P 4.4.P i.H u P 4.L p.i.H h 0 x z 0 y P H K 4.5.P i.p.L 4.P 5.z h 5.5.g j r 8 8 J 4.J 4.K 9 O z 4.L H h 4 8                 ",
"                K K H z 7 % 2 z z L 4.P 4.z P P P L 6.J y J 4.J a.i.H h 0 x z 0 0 P 5.P P i.P i.i.K i.3.P z z 5.6.z j y 8 8 J 3.J 4.K 0 O x 4.4.P z 4 8                 ",
"                L P H u 2 + 2 z 0 L 4.L 4.z J P K H i.L 0 H 4.H a.5.H z 0 z z 0 0 P i.L J P P i.4.K p.O.5.h x P 6.H j j 8 8 K P J 4.x 9 O H 4.5.P h 4 7                 ",
"                P P H 8 3 # 2 y 0 L 4.J P j x P J z 6.P 0 H 3.z i.4.x z 9 z z 0 r 5.6.x H P P i.4.L p.3.P z H L i.J z g 7 8 K L K P z 7 o H 4.P J u 3 3                 ",
"                P L J y 7 % 2 2 0 L K H P y z P K z 5.3.y z 4.z i.P z z 0 g z y 9 5.6.z x 5.4.6.4.L i.P K h K K 6.K z h 6 8 K J K K u 4 + J 4.P z 0 2 2                 ",
"                P P P z 9 # - 2 y K J P 4.u h P K z 3.P y z 4.H 6.P z h 0 h z 0 0 4.6.z k P P i.4.J 4.L J k L J 4.P z y 8 8 J H P J h 3 O H i.i.x 0 2 2                 ",
"                P J J h 0 % - 7 u K 4.P L y y P P z 3.K y z 4.z 4.L h z 0 h z 0 0 4.5.z z P P 5.3.J 4.K 3.L 3.H L P z y 8 y J K J x u 2 + J i.p.K 0 2 2                 ",
"                P J j u y $ - h z K 4.P J u y L P z P H 0 g P z K H h j 0 g k 0 0 3.4.z j P P 5.H z i.L 6.3.4.H J 3.j 0 4 y P J z h y 3 o J i.i.P u 2 2                 ",
"                4.P x u 0 % - h z L 4.J x y y L 5.H P H 8 g P j H z g z y g h 0 0 3.4.z z 4.P P h H 4.4.6.3.4.H z P z 8 3 j 4.K h 8 8 2 o H 6.5.L h 2 2                 ",
"                P P z g 8 & - u z L L h z 0 y P 4.H P z 8 u L g h z 0 h 0 y y 4 8 3.3.z x P P H g K 4.4.4.4.4.z k P z 8 3 j 5.P z h 0 2 + H i.3.L z 3 2                 ",
"                J P z z 8 - 2 u h z z 0 h 0 u J 4.z J z 4 y H g 8 8 8 8 8 y 8 3 8 P L h H P z g 0 J 3.4.4.3.3.z g L z 8 2 z 6.P z L h , % H i.4.K z 7 >                 ",
"                H J z g 7 - > y 0 h 0 4 0 8 g h L H J z 4 0 z u 8 8 8 0 8 y 0 8 7 P J g z L z u y J P 5.4.H J z y z k 8 3 z 5.J y 3.j , & H 4.P z z 8 >                 ",
"                J J z g 8 - = , 2 9 y 4 3 0 0 8 x x H g 2 9 z 0 8 8 4 8 8 8 g 0 6 K z j z z z y 0 J P 5.P z h g y j y 4 2 z 3.j 8 3.h , = K K K g h 4 >                 ",
"                J P J z 8 - % $ % - 2 3 4 6 8 8 0 0 u 0 7 8 8 3 > , > , > > 2 4 6 z g j u h u 8 8 g h j y 8 8 8 6 8 2 < , 8 0 4 3 4 > & - K z K g g 3 -                 ",
"              h J P P z 8 > $ $ % % = = = = = = - > > > 2 2 > > > > - = $ - > < 2 2 4 3 3 3 2 > > , , > , > , 2 , > > > > > > = $ $ $ $ > P j H y y 3 = $               ",
"              g H P J z 8 - % % % % % $ % $ $ $ $ $ % % % % % = % & & & % $ % % & * % % $ $ % % $ $ $ $ % $ % % $ % % % $ $ % $ $ $ $ $ , H 0 h 0 7 - % % $ $           ",
"              4 u J z h 3 % $ $ $ + # # + + + + + # + # + $ # + $ # # # # # O O O O o O o O o o X . o o . o o o O O O $ $ $ $ $ $ $ $ $ = y 4 8 7 > $ % $ $             ",
"          3 3 < 3 0 8 7 - $ $                                                                                                       O @ & < > = > & % $ $ $             ",
"              3                                                                                                                         < < > &   $ > 3                 ",
"                                                                                                                                            3       3                   ",
"                                                                                                                                                                        "
};
